<?xml version="1.0" encoding="UTF-8"?><svg id="Layer_1" xmlns="http://www.w3.org/2000/svg" viewBox="0 0 2236.94 385.63"><defs><style>.cls-1{fill:#fff;}</style></defs><path class="cls-1" d="M189,20.25C93.7,20.25,16.44,97.51,16.44,192.81s77.26,172.56,172.56,172.56,172.56-77.26,172.56-172.56S284.31,20.25,189,20.25ZM94.39,320.92L227.56,75.44h61.25L94.39,320.92Z"/><g><path class="cls-1" d="M464.45,75.08h35.44v245.92h-35.44V75.08Z"/><path class="cls-1" d="M654.02,320.99v-104.18c0-32.95-10.63-45.71-30.83-45.71-25.87,0-37.56,23.39-37.56,51.03v98.86h-33.31V146.3h31.18v24.81c10.99-17.72,25.51-28.35,49.61-28.35,34.37,0,54.22,25.87,54.22,67.32v110.91h-33.31Z"/><path class="cls-1" d="M837.56,320.99v-104.18c0-32.95-10.63-45.71-30.83-45.71-25.87,0-37.56,23.39-37.56,51.03v98.86h-33.31V146.3h31.18v24.81c10.99-17.72,25.51-28.35,49.61-28.35,34.37,0,54.22,25.87,54.22,67.32v110.91h-33.31Z"/><path class="cls-1" d="M909.48,233.82c0-56.34,31.18-91.07,75.83-91.07s75.48,34.72,75.48,91.07-31.18,90.36-75.48,90.36-75.83-34.02-75.83-90.36Zm116.58,0c0-36.5-14.17-62.72-40.75-62.72s-41.1,26.22-41.1,62.72,14.17,62.37,41.1,62.37,40.75-25.87,40.75-62.37Z"/><path class="cls-1" d="M1141.22,175.35v145.64h-33.31V175.35h-21.26v-29.06h21.26v-19.49c0-38.62,21.62-54.92,53.51-54.92,7.09,0,15.59,1.06,21.62,2.12v29.41c-3.9-.71-11.34-2.13-16.65-2.13-18.07,0-25.16,8.15-25.16,29.41v15.59h41.46v29.06h-41.46Z"/><path class="cls-1" d="M1203.57,233.82c0-56.34,31.18-91.07,75.83-91.07s75.47,34.72,75.47,91.07-31.18,90.36-75.47,90.36-75.83-34.02-75.83-90.36Zm116.58,0c0-36.5-14.18-62.72-40.75-62.72s-41.11,26.22-41.11,62.72,14.17,62.37,41.11,62.37,40.75-25.87,40.75-62.37Z"/><path class="cls-1" d="M1495.2,320.99v-24.8c-10.63,17.36-24.8,27.99-49.26,27.99-33.31,0-52.09-25.87-52.09-66.97v-110.91h33.31v103.82c0,33.66,9.92,46.07,29.06,46.07,25.51,0,37.21-23.39,37.21-51.74v-98.15h33.31v174.69h-31.54Z"/><path class="cls-1" d="M1678.74,320.99v-104.18c0-32.95-10.63-45.71-30.83-45.71-25.87,0-37.56,23.39-37.56,51.03v98.86h-33.31V146.3h31.18v24.81c10.98-17.72,25.51-28.35,49.61-28.35,34.37,0,54.22,25.87,54.22,67.32v110.91h-33.31Z"/><path class="cls-1" d="M1751.37,233.82c0-57.05,30.12-91.07,68.03-91.07,20.55,0,38.27,10.63,47.84,27.28V75.08h33.31v245.92h-31.18v-24.8c-10.28,17.72-27.64,28.35-49.97,28.35-37.91,0-68.03-33.66-68.03-90.71Zm116.94,0c0-36.5-14.53-62.72-41.1-62.72s-41.11,26.22-41.11,62.72,14.53,62.37,41.11,62.37,41.1-25.87,41.1-62.37Z"/><path class="cls-1" d="M1940.93,233.47c0-54.93,30.47-90.71,75.47-90.71s74.41,31.18,74.41,88.94c0,2.48,0,8.15-.35,12.4h-115.52c1.42,29.41,16.3,53.15,40.75,53.15,18.43,0,32.25-9.92,36.5-30.83h34.73c-6.73,37.56-35.43,57.76-70.87,57.76-42.52,0-75.12-32.6-75.12-90.71Zm34.37-14.88h80.79c-1.06-30.83-17.72-48.55-39.33-48.55s-37.92,17.36-41.46,48.55Z"/><path class="cls-1" d="M2131.91,320.99V146.3h31.18v34.02c9.57-26.58,27.64-37.2,49.26-37.2,1.77,0,4.25,0,8.15,.35v35.43c-5.67-.35-10.27-.35-14.88-.35-23.74,0-40.4,18.43-40.4,50.67v91.78h-33.31Z"/></g></svg>