<?xml version="1.0" encoding="UTF-8" standalone="no"?>
<svg
   width="298"
   height="33"
   viewBox="0 0 400 44.212"
   version="1.1"
   id="svg826"
   sodipodi:docname="inno.svg"
   inkscape:version="1.1.1 (c3084ef, 2021-09-22)"
   xmlns:inkscape="http://www.inkscape.org/namespaces/inkscape"
   xmlns:sodipodi="http://sodipodi.sourceforge.net/DTD/sodipodi-0.dtd"
   xmlns="http://www.w3.org/2000/svg"
   xmlns:svg="http://www.w3.org/2000/svg">
  <defs
     id="defs830" />
  <sodipodi:namedview
     id="namedview828"
     pagecolor="#ffffff"
     bordercolor="#999999"
     borderopacity="1"
     inkscape:pageshadow="0"
     inkscape:pageopacity="0"
     inkscape:pagecheckerboard="0"
     showgrid="false"
     inkscape:zoom="3.8355705"
     inkscape:cx="200.88276"
     inkscape:cy="38.977253"
     inkscape:window-width="1680"
     inkscape:window-height="969"
     inkscape:window-x="0"
     inkscape:window-y="25"
     inkscape:window-maximized="0"
     inkscape:current-layer="svg826" />
  <path
     d="M25.125.375c-.118.206-.34.6-.493.875-.739 1.328-1.547 2.723-1.882 3.25-.377.592-1.388 2.339-2.006 3.465a132.61 132.61 0 0 1-2.438 4.156c-.352.571-.639 1.098-.639 1.172 0 .073-.337.656-.749 1.295-.412.639-.75 1.224-.75 1.3-.001.077-.251.527-.555 1-.578.898-1.701 2.823-2.4 4.112a50.995 50.995 0 0 1-.855 1.5c-.246.412-.573.975-.726 1.25-.779 1.397-1.57 2.752-2.044 3.5A25.41 25.41 0 0 0 8.594 29c-.255.504-.566 1.032-.69 1.173-.123.141-.343.516-.487.833-.145.318-.482.915-.75 1.327-.268.413-.606 1.01-.75 1.328-.145.317-.362.692-.483.833-.121.141-.464.706-.76 1.256-.518.959-1.144 2.038-2.227 3.833a46.064 46.064 0 0 0-.905 1.584 31.846 31.846 0 0 1-.871 1.5c-.532.852-.766 1.5-.541 1.5.145 0 2.139-2.405 2.731-3.294.152-.229.515-.688.804-1.02.29-.332 1.235-1.503 2.099-2.603.865-1.1 1.871-2.375 2.235-2.833l2.123-2.67a335.088 335.088 0 0 0 2.961-3.751c2.343-3.022 4.017-5.101 4.199-5.213.12-.073.22-.223.222-.333.002-.11.337-.565.745-1.012.408-.446.786-.952.841-1.125.054-.172.159-.313.231-.313.073 0 .549-.544 1.058-1.208a50.063 50.063 0 0 1 1.274-1.609c.191-.22.348-.445.349-.5.001-.055.301-.422.667-.815.365-.394.666-.769.667-.834.001-.064.339-.492.75-.95.411-.457.747-.926.747-1.041 0-.115.064-.21.142-.21.137 0 2.267-2.584 2.616-3.174.096-.163.453-.621.792-1.019.544-.637 2.549-3.147 4.409-5.521.344-.438.981-1.219 1.416-1.734C35.444-.078 35.67 0 30.171 0h-4.83l-.216.375M183.833 24.75V37.5h3.834v-11h10.178l-.048-1.792-.047-1.791-5.042-.044-5.041-.045v-7.161h11.5V12h-15.334v12.75m65.95-12.644c-.064.064-.116 2.144-.116 4.622v4.506l-.625-.608c-3.658-3.557-9.662-1.022-10.87 4.591-.221 1.029-.216 5.474.008 6.45.454 1.974 2.714 5.314 3.607 5.329.111.002.494.156.85.341 1.861.97 5.294.318 6.688-1.27l.492-.56.05.955.05.955h3.5V12.083l-1.759-.047c-.967-.025-1.811.006-1.875.07m16.384 12.649v12.786l5.125-.095c5.789-.107 6.753-.241 8.643-1.2 7.788-3.953 7.975-18.34.298-22.847-1.883-1.106-3.006-1.28-8.775-1.358l-5.291-.072v12.786m119.166-.005V37.5H389v-6.257l.96-1.06.96-1.06.243.48c.134.264.565.983.957 1.596.392.614.713 1.157.713 1.206 0 .048.282.521.625 1.05.344.529.775 1.233.959 1.564.183.331.595 1.023.916 1.537l.584.935 2.041.004c2.375.006 2.431-.048 1.5-1.437a92.066 92.066 0 0 1-2.296-3.695c-.14-.245-.534-.879-.875-1.408-.341-.529-.62-1.005-.62-1.059 0-.054-.237-.446-.526-.872a37.353 37.353 0 0 1-1.008-1.586c-.56-.945-.764-.552 1.699-3.271 3.11-3.433 4.168-4.634 4.168-4.733 0-.055-.966-.101-2.146-.101h-2.147l-1.395 1.518-2.145 2.336a422.49 422.49 0 0 1-1.954 2.107l-1.205 1.289-.004-7.291L389 12h-3.667v12.75m-255.5-10.167V16.5h4.334v-3.833h-4.334v1.916m-11 2.417v2.333h-2v3.334h2v5.298c0 6.317.122 7.056 1.406 8.508.881.995 3.509 1.477 5.644 1.034l.95-.197v-3.101l-1.494.085-1.493.085-.59-.59-.589-.589V22.667h4.166v-3.334h-4.166v-4.666h-3.834V17m158.949-.542c3.886 2.309 5.242 8.493 2.933 13.374-1.464 3.096-3.601 4.168-8.307 4.168H270V15.642l3.296.054 3.296.054 1.19.708m-242.078 2.55c-1.115.156-2.974 1.209-3.49 1.975l-.381.566v-2.216h-3.5v18.178l1.875-.047 1.875-.047.084-6.25c.048-3.645.152-6.392.25-6.591 1.355-2.771 4.778-3.236 5.825-.791.319.746.347 1.222.425 7.215l.083 6.417 1.792.047 1.791.047v-6.843c0-7.645-.01-7.729-1.223-9.555-1.01-1.521-3.278-2.404-5.406-2.105m18.689.005c-1.114.147-2.485.871-3.263 1.724l-.62.68-.005-1.042-.005-1.042H47V37.5h3.667v-5.34c0-6.096.153-7.373 1.033-8.598 1.036-1.442 3.159-1.803 4.456-.758 1.038.836 1.072 1.071 1.171 8.196l.09 6.417h3.666l.046-5.917c.028-3.532-.024-6.387-.129-7.083-.561-3.744-3.147-5.859-6.607-5.404m17.068.001c-4.089.599-6.789 4.338-6.789 9.403 0 6.975 5.108 11.005 11.061 8.727 5.132-1.963 6.42-11.637 2.134-16.031-1.123-1.152-4.321-2.497-5.367-2.258-.046.01-.513.082-1.039.159m34.225-.01c-3.04.447-5.149 2.408-5.6 5.204l-.101.625h3.806l.102-.641c.547-3.421 6.291-2.787 6.342.699l.015 1.015-2.667.545-3.528.723c-4.053.835-5.913 5.659-3.392 8.797 1.359 1.69 5.069 2.352 7.208 1.285.282-.141.607-.256.72-.256.114 0 .571-.345 1.017-.766l.809-.766.083.974.083.975 1.632.047 1.632.048-.049-7.214-.048-7.215-.397-.75c-.219-.412-.448-.787-.508-.833-.061-.046-.275-.319-.476-.607-.902-1.292-4.27-2.244-6.683-1.889m38.608.01c-8.295 1.212-9.378 15.614-1.377 18.33 7.341 2.492 13.045-6.047 9.328-13.963-1.468-3.126-4.614-4.854-7.951-4.367m20.189-.005c-1.09.175-2.571.947-3.242 1.69l-.574.635v-2.001h-1.733c-1.425 0-1.75.047-1.833.264-.132.344-.132 17.295 0 17.639.083.217.408.264 1.833.264h1.733l.002-5.458c.003-5.932.092-6.738.898-8.112 1.334-2.276 4.361-2.358 5.398-.145l.452.965.052 6.375.052 6.375h3.646l-.004-5.875c-.003-5.908-.188-8.554-.664-9.473-1.204-2.33-3.526-3.543-6.016-3.143m63.007-.008c-1.126.191-2.701 1.053-3.387 1.855l-.603.704V19.333h-3.333v18.178l1.791-.047 1.792-.047.088-6c.067-4.565.143-6.14.319-6.584.904-2.275 2.838-3.221 4.683-2.291 1.599.806 1.824 2.004 1.825 9.75l.002 5.208h3.514l-.049-6.792c-.047-6.54-.063-6.834-.428-7.959-.861-2.655-3.449-4.216-6.214-3.748m68.033.004c-4.851.705-7.435 5.481-6.453 11.927.217 1.427.429 1.979 1.422 3.714 1.105 1.931 4.213 3.366 6.758 3.12 3.648-.352 5.837-2.256 6.678-5.808l.108-.458h-3.856l-.177.625c-1.192 4.232-6.453 3.067-7.305-1.618l-.152-.84H304.333v-1.649c0-4.047-1.478-6.907-4.264-8.248-1.024-.493-3.072-1.017-3.569-.913-.046.01-.486.076-.977.148m20.059-.003c-1.134.161-2.715 1.034-3.374 1.863l-.541.682v-2.214h-3.503l.043 9.042.043 9.042h3.667l.103-6.084c.119-7.032.109-6.956 1.127-8.008 1.559-1.609 3.887-1.487 4.886.257.378.658.385.762.467 7.251l.083 6.584h3.667l.048-6.084c.058-7.436-.132-8.741-1.539-10.586-.885-1.16-3.376-2-5.177-1.745m18.385.007c-1.05.171-2.377.917-3.068 1.724l-.566.66v-2.06h-3.503l.044 9.042.043 9.042 1.78.047 1.78.047.057-5.964c.055-5.764.07-5.997.443-6.964 1.078-2.794 4.26-3.259 5.401-.79.353.763.367 1.015.421 7.254l.056 6.464 1.781-.047 1.781-.047.083-6.167.083-6.167.498-.982c.874-1.724 2.449-2.353 4.006-1.599 1.467.71 1.488.827 1.545 8.456l.049 6.542h3.652v-6.803c0-7.607-.013-7.717-1.139-9.447-1.887-2.898-6.398-3.094-8.875-.386l-.764.835-.582-.81c-1.011-1.406-3.098-2.19-5.006-1.88m26.259 0c-2.952.385-5.21 2.359-5.486 4.795l-.116 1.029h3.672l.103-.541c.625-3.31 5.826-3.075 6.448.291.096.516.146 1.02.113 1.12-.055.165-4.25 1.123-6.127 1.4-1.154.171-2.243.791-3.555 2.026-1.744 1.642-1.493 5.95.431 7.41 2.284 1.731 6.269 1.578 8.443-.323l.831-.727.05.964.05.964 1.634.047 1.633.048-.059-7.131c-.074-8.827-.201-9.259-3.148-10.666-.878-.419-3.844-1.076-3.889-.861-.002.012-.465.082-1.028.155m19.013.387c-.974.454-1.994 1.301-2.433 2.021l-.305.5v-1.292l-.001-1.292H373v18.178l1.792-.047 1.791-.047.084-5.75c.08-5.554.096-5.774.456-6.449.838-1.567 1.913-2.226 3.825-2.345l1.385-.087V19l-1.125.002c-.829.001-1.346.104-1.969.394m-297.282.036c-.054.054.22 1.047.609 2.208.823 2.454 2.797 8.645 3.863 12.11.141.458.494 1.49.784 2.292l.528 1.458h4.402l.325-.875c.178-.481.494-1.437.702-2.125.208-.687.656-2.113.996-3.167.34-1.054.978-3.041 1.417-4.416a633.16 633.16 0 0 1 1.524-4.7c1.022-3.094 1.102-2.884-1.111-2.884h-1.838l-.174.459c-.096.252-.345 1.095-.555 1.875-.378 1.409-.875 3.048-2.113 6.974-.357 1.131-.649 2.173-.649 2.316 0 .291-.687 2.245-.763 2.169-.1-.1-.904-2.678-.904-2.9 0-.127-.3-1.138-.667-2.246-.366-1.109-.666-2.102-.665-2.206.001-.105-.331-1.241-.736-2.524-.405-1.283-.828-2.69-.939-3.125l-.203-.792h-1.867c-1.027 0-1.912.045-1.966.099m48.21 8.985V37.5h3.666V19.333h-3.666v9.084m71.333-2.948c0 7.509.113 8.317 1.443 10.329 1.589 2.402 5.875 2.649 8.149.47l.727-.697.049.923.049.923h3.5l.043-9.042.043-9.042h-3.65l-.052 5.959c-.049 5.735-.065 5.988-.419 6.754-.951 2.062-2.283 2.854-4.064 2.419-1.836-.448-1.985-1.121-1.985-8.983v-6.149H201.5v6.136m96.594-3.04c1.294.612 2.111 1.844 2.395 3.613l.128.791h-7.993l.109-.679c.499-3.123 2.984-4.849 5.361-3.725m-224.548-.086c4.139 1.15 4.01 11.259-.155 12.133-1.266.266-2.465-.079-3.198-.92-2.473-2.836-1.994-9.769.754-10.931 1.217-.515 1.608-.557 2.599-.282m72.834 0c4.081 1.134 4.003 11.298-.093 12.121-2.012.404-3.244-.299-4.317-2.464-.445-.898-.562-5.961-.16-6.917.44-1.044 1.383-2.211 1.997-2.47 1.189-.501 1.588-.543 2.573-.27m101.086.306c2.491 1.271 3.157 7.445 1.127 10.437-1.718 2.531-5.446 1.726-6.346-1.37-1.723-5.93 1.248-11.092 5.219-9.067m-137.169 7.429c-.185 2.894-1.929 4.678-4.521 4.627-2.151-.042-3.207-1.867-2.116-3.655.47-.771 1.101-1.03 4.001-1.641l2.653-.561c.035-.008.027.546-.017 1.23m254.616-.036c-.251 2.506-1.418 4.076-3.354 4.516-3.189.725-5.141-1.627-3.101-3.733l.792-.818 2.75-.572c1.512-.315 2.814-.579 2.892-.587.078-.008.087.529.021 1.194"
     fill="#043444"
     fill-rule="evenodd"
     id="path824" />
  <path
     style="fill:#000000;stroke-width:0.753822"
     d="m 1.1732283,31.16666 c 0,-0.123043 0.9264261,-1.818358 2.0587246,-3.767367 C 4.3642515,25.450286 6.7816097,21.274541 8.6038602,18.11986 10.426111,14.965179 13.499377,9.6563211 15.433342,6.3223972 L 18.94964,0.26071741 h 3.495961 3.495961 L 23.181453,3.7152231 c -1.51806,1.8999781 -3.194658,3.9824584 -3.725773,4.627734 -0.531115,0.6452756 -2.389184,2.9917319 -4.129042,5.2143479 -4.02294,5.139186 -13.6183055,17.258961 -13.9225565,17.58539 -0.1269692,0.136225 -0.2308532,0.14701 -0.2308532,0.02397 z"
     id="path1025"
     transform="matrix(1.3422819,0,0,1.3422819,0,-0.04165101)" />
  <path
     style="fill:#000000;stroke-width:0.753822"
     d="m 21.248469,21.248469 v -6.648294 h 1.173228 c 1.133808,0 1.173229,0.02669 1.173229,0.794438 v 0.794438 l 1.043,-0.838178 c 2.013988,-1.618485 4.508956,-1.2517 6.102756,0.897167 0.505316,0.6813 0.551586,1.136458 0.629463,6.192038 l 0.08406,5.456685 H 30.2621 29.069995 l -0.02391,-1.759843 c -0.01315,-0.967913 -0.103972,-3.327027 -0.201827,-5.242475 -0.164803,-3.225932 -0.222822,-3.518995 -0.787126,-3.975941 -0.335065,-0.271319 -0.918849,-0.492869 -1.297298,-0.492333 -0.946085,0.0013 -2.342887,0.903095 -2.649969,1.710781 -0.139821,0.367756 -0.254219,2.714159 -0.254219,5.214229 v 4.545582 h -1.303587 -1.303587 z"
     id="path1064"
     transform="matrix(1.3422819,0,0,1.3422819,0,-0.04165101)" />
  <path
     style="fill:#000000;stroke-width:0.753822"
     d="m 35.066492,21.248469 v -6.648294 h 1.173228 c 1.144092,0 1.173228,0.02055 1.173228,0.827599 v 0.827599 l 0.586615,-0.536385 c 1.101263,-1.006966 2.291499,-1.44489 3.588387,-1.320275 1.535674,0.147558 2.434358,0.79262 3.186476,2.287201 0.540517,1.074096 0.597938,1.597297 0.679575,6.192039 l 0.08917,5.01881 h -1.327579 -1.327579 l -0.01554,-3.975941 c -0.01907,-4.878955 -0.238739,-6.388056 -1.022205,-7.022468 -1.270424,-1.028728 -3.421891,-0.182231 -3.89843,1.533841 -0.151395,0.545189 -0.275918,2.897748 -0.276717,5.22791 l -0.0015,4.236658 h -1.303587 -1.303587 z"
     id="path1103"
     transform="matrix(1.3422819,0,0,1.3422819,0,-0.04165101)" />
  <path
     style="fill:#000000;stroke-width:0.753822"
     d="m 52.925634,27.913013 c -2.904232,-0.704512 -4.562554,-3.185716 -4.562554,-6.826559 0,-5.693735 5.280197,-8.736533 9.29117,-5.354186 3.227005,2.721247 2.617702,9.892536 -0.983823,11.579273 -1.376574,0.644705 -2.694175,0.856332 -3.744793,0.601472 z m 2.830422,-2.64053 c 1.408775,-1.108142 1.863619,-5.003397 0.819914,-7.021699 -0.506455,-0.979376 -1.616538,-1.825587 -2.394856,-1.825587 -0.982986,0 -2.117823,0.711032 -2.588962,1.622116 -0.561244,1.085325 -0.75819,3.694573 -0.383401,5.079503 0.163158,0.602907 0.597302,1.453497 0.964764,1.890201 0.552762,0.65692 0.860601,0.794007 1.783005,0.794007 0.731919,0 1.350072,-0.184993 1.799536,-0.538541 z"
     id="path1142"
     transform="matrix(1.3422819,0,0,1.3422819,0,-0.04165101)" />
  <path
     style="fill:#000000;stroke-width:0.753822"
     d="m 65.350696,27.440507 c -0.210375,-0.403164 -1.843184,-5.415873 -3.57099,-10.962911 l -0.592745,-1.902981 1.32617,0.07796 1.32617,0.07796 1.452178,4.91079 c 0.798698,2.700934 1.569501,4.90182 1.712895,4.890856 0.143395,-0.01096 0.913793,-2.220819 1.711995,-4.91079 l 1.451276,-4.890856 1.221077,-0.07947 c 0.871667,-0.05673 1.220554,0.01788 1.219251,0.260718 -0.0021,0.394109 -3.779278,12.303544 -4.031686,12.711949 -0.09281,0.150165 -0.802964,0.273027 -1.578126,0.273027 -1.077764,0 -1.465405,-0.107355 -1.647465,-0.456256 z"
     id="path1181"
     transform="matrix(1.3422819,0,0,1.3422819,0,-0.04165101)" />
  <path
     style="fill:#000000;stroke-width:0.753822"
     d="m 77.374422,27.90434 c -1.890153,-0.449082 -3.027296,-1.758188 -3.025161,-3.482637 0.0017,-1.336234 0.610065,-2.563191 1.631761,-3.290702 0.458313,-0.326348 1.889844,-0.773676 3.523619,-1.101069 l 2.751702,-0.551415 v -0.886718 c 0,-1.765936 -2.1962,-2.922877 -3.887852,-2.04809 -0.550329,0.284586 -0.87362,0.680536 -0.976773,1.196302 -0.145516,0.727578 -0.22565,0.770925 -1.425183,0.770925 -1.511823,0 -1.605346,-0.296175 -0.622889,-1.972612 1.59301,-2.718266 6.245414,-3.018711 8.366827,-0.540317 l 0.892327,1.042482 v 5.428137 5.428137 h -1.04287 c -0.984932,0 -1.04287,-0.04345 -1.04287,-0.782152 0,-0.913658 -0.256193,-0.98594 -0.914861,-0.25812 -0.396844,0.438507 -2.746408,1.362952 -3.238758,1.274302 -0.08152,-0.01468 -0.526578,-0.116582 -0.989019,-0.226453 z m 3.479685,-2.481195 c 0.365,-0.239157 0.829822,-0.832567 1.032937,-1.318689 0.390153,-0.933768 0.50473,-2.728401 0.173761,-2.721626 -0.107546,0.0022 -1.134121,0.237643 -2.281277,0.523203 -1.338569,0.333208 -2.249183,0.715706 -2.541995,1.06775 -1.1693,1.405834 0.04664,3.271769 1.965313,3.0159 0.543193,-0.07244 1.28626,-0.32738 1.651261,-0.566538 z"
     id="path1220"
     transform="matrix(1.3422819,0,0,1.3422819,0,-0.04165101)" />
  <path
     style="fill:#000000;stroke-width:0.753822"
     d="m 90.42429,27.522674 c -1.362262,-0.60242 -1.507093,-1.141699 -1.650012,-6.143846 l -0.130358,-4.562555 -0.716973,-0.0825 c -0.646658,-0.07441 -0.716973,-0.183076 -0.716973,-1.108049 0,-0.965691 0.04565,-1.025552 0.782152,-1.025552 h 0.782152 V 12.77515 10.950128 h 1.303587 1.303587 v 1.825022 1.825022 h 1.433946 1.433946 v 1.04287 1.042869 h -1.433946 -1.433946 v 4.131071 c 0,3.784207 0.04329,4.170245 0.515537,4.597625 0.379474,0.343419 0.761701,0.426607 1.448249,0.315195 l 0.932712,-0.151358 -0.07948,1.093979 -0.07948,1.093978 -1.433946,0.06095 c -0.799321,0.03398 -1.799865,-0.100868 -2.260749,-0.30468 z"
     id="path1259"
     transform="matrix(1.3422819,0,0,1.3422819,0,-0.04165101)" />
  <path
     style="fill:#000000;stroke-width:0.753822"
     d="m 97.117235,21.248469 v -6.648294 h 1.173229 1.173228 v 6.648294 6.648294 h -1.173228 -1.173229 z"
     id="path1298"
     transform="matrix(1.3422819,0,0,1.3422819,0,-0.04165101)" />
  <path
     style="fill:#000000;stroke-width:0.753822"
     d="M 96.856518,10.950131 V 9.6465442 h 1.433946 1.433945 v 1.3035868 1.303587 h -1.433945 -1.433946 z"
     id="path1337"
     transform="matrix(1.3422819,0,0,1.3422819,0,-0.04165101)" />
  <path
     style="fill:#000000;stroke-width:0.753822"
     d="m 107.00854,27.801609 c -1.6757,-0.451872 -2.62926,-1.216101 -3.51703,-2.818729 -0.69235,-1.249857 -0.76861,-1.621421 -0.76645,-3.734411 0.002,-2.030969 0.095,-2.521728 0.69117,-3.650044 0.82254,-1.556792 1.58606,-2.312099 2.88648,-2.855448 2.97963,-1.244967 6.27592,0.473756 7.40016,3.85852 0.52895,1.592521 0.38807,4.59093 -0.27748,5.90594 -0.7842,1.54942 -2.23198,2.848453 -3.64095,3.266872 -1.48656,0.441461 -1.24872,0.439122 -2.7759,0.0273 z m 3.25182,-2.792832 c 0.85754,-1.019119 1.06578,-1.780894 1.06589,-3.899113 1.8e-4,-3.522855 -2.01345,-5.574115 -4.25228,-4.331753 -1.24288,0.689695 -1.6102,1.667698 -1.61206,4.29216 -0.002,2.472808 0.17073,3.113023 1.11918,4.154338 0.4104,0.450581 0.82068,0.586615 1.76926,0.586615 1.059,0 1.33116,-0.114314 1.91001,-0.802247 z"
     id="path1376"
     transform="matrix(1.3422819,0,0,1.3422819,0,-0.04165101)" />
  <path
     style="fill:#000000;stroke-width:0.753822"
     d="m 117.19248,21.248469 v -6.648294 h 1.17322 c 1.07764,0 1.17323,0.05311 1.17323,0.651794 0,0.753882 0.30466,0.836202 0.81541,0.220331 0.5068,-0.611104 1.87446,-1.132842 2.96957,-1.132842 1.2403,0 2.28575,0.572487 3.17574,1.739037 l 0.73045,0.957433 0.0915,5.430417 0.0915,5.430418 h -1.16066 -1.16066 l -0.18572,-4.871142 c -0.18215,-4.777663 -0.34126,-5.627571 -1.1731,-6.266236 -0.58119,-0.446225 -1.88495,-0.409384 -2.57324,0.07271 -1.25914,0.881936 -1.46986,1.760835 -1.5745,6.567288 l -0.0979,4.497375 h -1.14743 -1.14743 z"
     id="path1415"
     transform="matrix(1.3422819,0,0,1.3422819,0,-0.04165101)" />
  <path
     style="fill:#000000;stroke-width:0.753822"
     d="M 137.007,18.510936 V 9.1251094 h 5.60542 5.60543 v 1.1732286 1.173228 h -4.30184 -4.30184 v 2.867892 2.867891 h 3.78041 3.7804 v 1.173228 1.173229 h -3.7804 -3.78041 v 4.171478 4.171479 h -1.30358 -1.30359 z"
     id="path1454"
     transform="matrix(1.3422819,0,0,1.3422819,0,-0.04165101)" />
  <path
     style="fill:#000000;stroke-width:0.753822"
     d="m 153.04112,27.75476 c -1.19848,-0.412679 -2.10742,-1.412755 -2.47747,-2.725889 -0.14144,-0.501881 -0.25781,-3.053652 -0.25861,-5.670603 l -0.001,-4.758093 h 1.30358 1.30359 v 4.675941 c 0,4.525558 0.18755,5.900171 0.86364,6.330071 0.53462,0.339937 2.12403,0.222288 2.72988,-0.202066 1.19441,-0.836597 1.36011,-1.611278 1.36011,-6.358803 v -4.445143 h 1.30359 1.30359 v 6.662579 6.662579 l -1.23707,-0.07946 c -1.13769,-0.07308 -1.24764,-0.140332 -1.36876,-0.837197 -0.12108,-0.696577 -0.16174,-0.721492 -0.50379,-0.308706 -0.91394,1.102916 -2.82571,1.569616 -4.32083,1.054794 z"
     id="path1493"
     transform="matrix(1.3422819,0,0,1.3422819,0,-0.04165101)" />
  <path
     style="fill:#000000;stroke-width:0.753822"
     d="m 164.12161,21.248469 v -6.648294 h 1.17323 c 1.13381,0 1.17323,0.02669 1.17323,0.794438 v 0.794438 l 1.043,-0.838178 c 0.80083,-0.64357 1.36077,-0.863682 2.41163,-0.94802 1.72279,-0.138264 2.92723,0.586655 3.78027,2.27523 0.54793,1.084614 0.58662,1.492805 0.58662,6.189934 v 5.028746 h -1.17323 -1.17323 l -0.006,-4.236658 c -0.007,-4.590197 -0.22659,-6.118291 -0.95714,-6.652636 -1.28737,-0.941622 -2.73792,-0.664654 -3.65631,0.698133 -0.53496,0.793838 -0.59468,1.188882 -0.59468,3.934254 0,1.678494 -0.0754,3.772955 -0.1675,4.654358 l -0.1675,1.602549 h -1.13608 -1.13609 z"
     id="path1532"
     transform="matrix(1.3422819,0,0,1.3422819,0,-0.04165101)" />
  <path
     style="fill:#000000;stroke-width:0.753822"
     d="m 180.95517,27.745102 c -1.38969,-0.509002 -1.83852,-0.964911 -2.75453,-2.798022 -0.68082,-1.362431 -0.78096,-1.839752 -0.771,-3.675074 0.0127,-2.350541 0.37246,-3.623662 1.40707,-4.980104 1.56382,-2.050275 4.34945,-2.524504 6.26166,-1.065993 l 0.9235,0.70439 v -2.587853 c 0,-1.423319 0.0733,-2.954487 0.16295,-3.4025947 0.15271,-0.7635296 0.23465,-0.8147419 1.30359,-0.8147419 h 1.14064 v 9.3858266 9.385827 h -1.17323 c -1.13413,0 -1.17323,-0.02651 -1.17323,-0.79542 v -0.795421 l -0.84733,0.639459 c -0.76509,0.577393 -2.52793,1.235479 -3.19379,1.192275 -0.14339,-0.0093 -0.72223,-0.185954 -1.2863,-0.392554 z m 3.856,-2.472619 c 1.48432,-1.167565 1.85675,-4.994531 0.70563,-7.250901 -1.06431,-2.086228 -3.49939,-2.112965 -4.78086,-0.05249 -0.48772,0.784206 -0.58021,1.306975 -0.58021,3.279381 0,3.336538 0.77706,4.502764 3.02827,4.544909 0.57954,0.01085 1.2062,-0.189757 1.62717,-0.520895 z"
     id="path1571"
     transform="matrix(1.3422819,0,0,1.3422819,0,-0.04165101)" />
  <path
     style="fill:#000000;stroke-width:0.753822"
     d="M 198.53631,18.519729 V 9.0638878 l 4.24275,0.1024216 c 4.16836,0.100626 4.26778,0.1164852 5.6706,0.9046076 4.1704,2.342982 5.63945,8.720782 3.13808,13.623865 -0.72392,1.419008 -2.00453,2.622474 -3.53366,3.320804 -1.10491,0.504595 -1.93524,0.623974 -5.41147,0.778018 l -4.1063,0.181965 z m 7.95188,6.512984 c 2.95836,-1.121617 4.42257,-5.914065 2.98268,-9.762512 -0.64239,-1.716928 -2.51172,-3.537918 -3.63184,-3.537918 -0.38836,0 -1.60374,-0.07588 -2.70083,-0.168615 l -1.99472,-0.168615 v 7.116218 7.116219 l 2.28128,-0.149118 c 1.2547,-0.08202 2.63325,-0.282561 3.06343,-0.445659 z"
     id="path1610"
     transform="matrix(1.3422819,0,0,1.3422819,0,-0.04165101)" />
  <path
     style="fill:#000000;stroke-width:0.753822"
     d="M 287.18023,18.510936 V 9.1251094 h 1.30358 1.30359 l 0.0131,5.4098866 0.0131,5.409886 2.54662,-2.687625 2.54663,-2.687626 1.3635,0.08045 1.36349,0.08045 -2.22242,2.476815 c -1.22234,1.362249 -2.22517,2.553419 -2.22853,2.647045 -0.003,0.09363 1.0336,1.853469 2.30433,3.910762 1.27073,2.057292 2.26105,3.828523 2.20071,3.936069 -0.0603,0.107546 -0.6743,0.195538 -1.36436,0.195538 h -1.25465 l -1.88486,-3.1522 -1.88486,-3.152199 -0.75587,0.724162 c -0.72805,0.697523 -0.75586,0.81348 -0.75586,3.152199 v 2.428038 h -1.30359 -1.30358 z"
     id="path1649"
     transform="matrix(1.3422819,0,0,1.3422819,0,-0.04165101)" />
  <path
     style="fill:#000000;stroke-width:0.753822"
     d="m 278.05512,21.248469 v -6.648294 h 1.17323 1.17322 v 0.963655 0.963655 l 0.84734,-0.802012 c 1.09467,-1.036124 1.79787,-1.386015 2.78557,-1.386015 0.78534,0 0.79929,0.02276 0.79929,1.303587 v 1.303587 l -0.97769,9.64e-4 c -1.11673,0.0011 -2.4946,0.744036 -2.94671,1.588822 -0.1826,0.341191 -0.36384,2.360246 -0.44591,4.967581 l -0.13827,4.392764 h -1.13503 -1.13504 z"
     id="path1688"
     transform="matrix(1.3422819,0,0,1.3422819,0,-0.04165101)" />
  <path
     style="fill:#000000;stroke-width:0.753822"
     d="m 265.61852,27.400739 c -1.051,-0.659535 -1.64214,-1.785859 -1.64214,-3.128805 0,-2.312303 1.36212,-3.4866 4.88492,-4.21133 3.23764,-0.666063 3.27838,-0.687883 3.08573,-1.652367 -0.26356,-1.319429 -1.26079,-2.113399 -2.65444,-2.113399 -0.98047,0 -1.30062,0.128744 -1.8191,0.731512 -0.34607,0.402331 -0.62922,0.900953 -0.62922,1.108049 0,0.276953 -0.3375,0.376537 -1.27613,0.376537 h -1.27613 l 0.21299,-0.944362 c 0.25858,-1.146529 1.60262,-2.594216 2.76447,-2.97766 1.95892,-0.646504 5.10366,-0.0137 6.07621,1.222694 0.64362,0.818229 0.7521,1.729655 0.8876,7.457421 l 0.10948,4.627734 h -1.12555 c -1.06028,0 -1.13029,-0.04564 -1.20725,-0.786926 l -0.0817,-0.786927 -1.00062,0.71452 c -1.35848,0.970067 -4.04885,1.154171 -5.30912,0.363309 z m 4.1886,-1.68848 c 1.1686,-0.488273 1.92944,-1.530269 2.13932,-2.929879 0.0962,-0.641808 0.12055,-1.221365 0.054,-1.287905 -0.0665,-0.06654 -1.04858,0.06786 -2.18232,0.298662 -1.47535,0.300348 -2.26517,0.611439 -2.77832,1.094315 -1.87387,1.76331 0.21197,3.892494 2.76731,2.824807 z"
     id="path1727"
     transform="matrix(1.3422819,0,0,1.3422819,0,-0.04165101)" />
  <path
     style="fill:#000000;stroke-width:0.753822"
     d="m 243.64042,21.248469 v -6.648294 h 1.17323 c 1.14508,0 1.17323,0.01994 1.17323,0.83093 v 0.83093 l 0.71697,-0.668715 c 1.00649,-0.93875 1.7098,-1.253862 2.79852,-1.253862 1.13291,0 2.25214,0.53931 2.94366,1.41843 l 0.50869,0.646696 0.58884,-0.626798 c 1.90389,-2.026594 5.03378,-1.881329 6.52206,0.302704 0.63618,0.933596 0.6537,1.086514 0.7316,6.386386 l 0.0798,5.429887 h -1.14763 -1.14763 l -0.16953,-3.324147 c -0.0932,-1.828281 -0.17002,-4.121409 -0.1706,-5.09584 -9.1e-4,-1.532652 -0.0874,-1.858036 -0.641,-2.411637 -1.12497,-1.124972 -2.8246,-0.694778 -3.66338,0.927242 -0.30222,0.584428 -0.38959,1.779466 -0.38959,5.32888 v 4.575502 h -1.13779 -1.13779 l -0.1658,-1.209617 c -0.0912,-0.665289 -0.16579,-2.841588 -0.16579,-4.836219 0,-2.672974 -0.1003,-3.82056 -0.38144,-4.364214 -0.67591,-1.307068 -2.05966,-1.435505 -3.32125,-0.308271 l -0.84303,0.753244 -0.18134,3.353055 c -0.0997,1.84418 -0.19151,4.086322 -0.20395,4.982538 l -0.0226,1.629484 h -1.17323 -1.17323 z"
     id="path1766"
     transform="matrix(1.3422819,0,0,1.3422819,0,-0.04165101)" />
  <path
     style="fill:#000000;stroke-width:0.753822"
     d=""
     id="path1805"
     transform="matrix(1.3422819,0,0,1.3422819,0,-0.04165101)" />
  <path
     style="fill:#000000;stroke-width:0.753822"
     d="m 219.63846,27.801085 c -1.72541,-0.464515 -2.7269,-1.291452 -3.51506,-2.902401 -1.31872,-2.695366 -0.83948,-6.977945 1.00176,-8.951867 1.47189,-1.577957 4.02053,-2.043478 6.07633,-1.109868 2.0105,0.913042 3.05941,2.600814 3.37699,5.43383 l 0.18266,1.629483 h -4.46587 c -5.04078,0 -4.90099,-0.07124 -3.95387,2.015174 0.55952,1.23258 1.8258,2.153827 2.96256,2.15533 0.81164,0.0011 2.26122,-1.238965 2.26122,-1.93435 0,-0.32071 0.29292,-0.411132 1.33185,-0.411132 1.3214,0 1.33048,0.0056 1.15744,0.716973 -0.60368,2.481669 -3.68413,4.094307 -6.41601,3.358828 z m 4.4467,-7.921382 c -8e-4,-0.107546 -0.12155,-0.627958 -0.26834,-1.156471 -0.36159,-1.301866 -1.58437,-2.298035 -2.82081,-2.298035 -1.53557,0 -2.53536,0.975978 -3.00463,2.933071 l -0.17192,0.716973 h 3.13358 c 1.72347,0 3.13292,-0.08799 3.13212,-0.195538 z"
     id="path1844"
     transform="matrix(1.3422819,0,0,1.3422819,0,-0.04165101)" />
  <path
     style="fill:#000000;stroke-width:0.753822"
     d="m 229.8224,21.248469 v -6.648294 h 1.17323 c 1.13847,0 1.17322,0.02397 1.17322,0.80916 v 0.809161 l 0.9173,-0.805393 c 1.08741,-0.954763 1.86619,-1.188593 3.31254,-0.994597 1.27789,0.171402 2.23137,0.831056 2.93989,2.033944 0.4657,0.790623 0.53088,1.449641 0.60979,6.164785 l 0.0883,5.279528 h -1.32676 -1.32676 v -4.811005 c 0,-3.02033 -0.10963,-5.051611 -0.29454,-5.457444 -0.65517,-1.43794 -2.83662,-1.503967 -4.00025,-0.121077 -0.60987,0.724788 -0.65895,0.980144 -0.6604,3.435339 -8.6e-4,1.458792 -0.0769,3.620263 -0.169,4.803268 l -0.16744,2.150919 h -1.13459 -1.13458 z"
     id="path1883"
     transform="matrix(1.3422819,0,0,1.3422819,0,-0.04165101)" />
</svg>
