<?xml version="1.0" encoding="utf-8"?>
<!-- Generator: Adobe Illustrator 26.0.2, SVG Export Plug-In . SVG Version: 6.00 Build 0)  -->
<svg version="1.1" id="Lag_1" xmlns="http://www.w3.org/2000/svg" xmlns:xlink="http://www.w3.org/1999/xlink" x="0px" y="0px"
	 viewBox="0 0 500 500" style="enable-background:new 0 0 3000 3000;" xml:space="preserve">
<style type="text/css">
	.st0{font-family:'Montserrat-Regular';}
	.st1{font-size:408.0319px;}
	.st2{font-family:'Montserrat-Thin';}
</style>
<path class='logi1' d="M318.1,1140.5c12.4,0.4,24.9,0.5,37.3,1.2c12.9,0.7,25.9,1.8,38.8,3c19.8,1.8,39.4,4.8,58.9,8.8
	c27.9,5.6,55.3,13.1,81.6,24.1c14.2,5.9,28,12.9,40.7,21.6c8.4,5.8,16.3,12.3,22.9,20.1c4.2,4.9,7.7,10.1,10.4,16
	c6,13.3,6,26.6,0,39.9c-3.6,8-8.8,14.8-14.9,20.9c-8.3,8.4-17.8,15.2-27.9,21.2c-16,9.5-33,16.8-50.6,23
	c-21.3,7.4-43.2,13-65.3,17.3c-12.7,2.5-25.4,4.6-38.2,6.1c-10.6,1.3-21.3,2.4-32,3.3c-22.9,2.1-45.9,2.8-68.8,2.5
	c-11.5-0.1-23-0.4-34.5-1.1c-12.2-0.7-24.4-1.8-36.6-3c-14.5-1.3-28.9-3.5-43.2-6c-30.7-5.4-60.8-12.9-89.9-24.4
	c-15.4-6.1-30.4-13.3-44.2-22.6c-9.2-6.1-17.7-13-24.9-21.5c-4.3-5-8-10.5-10.6-16.6c-5.8-13.3-5.6-26.6,0.5-39.7
	c3.6-7.8,8.8-14.5,14.8-20.6c8.2-8.2,17.5-15,27.4-20.9c15.2-9.1,31.3-16.2,47.9-22.1c18.8-6.8,38.1-12,57.7-16.2
	c13.9-3,27.9-5.5,42-7.4c10.8-1.4,21.5-2.6,32.4-3.7C272.4,1141.7,295.2,1140.8,318.1,1140.5z M318,1344.1c21.6-0.2,43.2-1,64.7-3.1
	c10.9-1.1,21.7-2.3,32.5-3.7c14-1.9,27.9-4.4,41.8-7.4c21.6-4.7,42.9-10.7,63.4-19c13.2-5.3,26-11.4,37.9-19.3
	c6.8-4.5,13.2-9.4,18.7-15.4c3.3-3.5,6.1-7.4,8.2-11.8c2.8-6.1,2.9-12.3,0-18.3c-1.4-2.8-3.1-5.5-4.9-8.1
	c-3.2-4.4-7.2-8.1-11.3-11.5c-9.8-8-20.6-14.3-32-19.8c-19.6-9.4-40.2-16.3-61.2-21.8c-14.3-3.7-28.7-6.8-43.2-9.2
	c-8.3-1.3-16.6-2.7-25-3.8c-7.8-1-15.7-1.8-23.5-2.5c-7.9-0.7-15.9-1.4-23.8-1.8c-8.7-0.5-17.4-0.7-26-1
	c-17.4-0.6-34.8-0.2-52.1,0.6c-12.9,0.6-25.8,1.5-38.6,3c-9.8,1.2-19.6,2.3-29.4,3.7c-13.8,2-27.5,4.6-41.1,7.8
	c-19.7,4.6-39,10.2-57.8,17.8c-14.3,5.7-28,12.4-40.7,21.2c-7.2,5-13.8,10.5-19.2,17.5c-2.1,2.8-3.9,5.8-5.2,9
	c-2,5.1-2,10.3-0.1,15.4c1.6,4.2,4,7.8,6.9,11.2c4,4.8,8.7,9,13.7,12.7c10.2,7.7,21.3,13.7,32.9,19c21.4,9.8,43.8,16.7,66.7,22.1
	c22.3,5.3,44.9,9,67.6,11.6c13.4,1.5,26.8,2.7,40.3,3.3C291.5,1343.4,304.8,1343.7,318,1344.1z"/>
<path class='logi2' d="M579.1,1494.4c0,11.4,0,22.5,0,33.6c-1.3,0.9-2.5,1.7-3.7,2.6c-13.5,9-28.1,16.1-43.1,22.1c-20,8-40.6,14.1-61.6,18.9
	c-14.2,3.3-28.6,6.1-43,8.2c-10.9,1.6-21.9,2.9-32.9,4.1c-26.8,2.9-53.7,4-80.6,3.7c-12-0.1-24-0.5-35.9-1.1
	c-12.2-0.7-24.4-1.8-36.6-3c-23.2-2.3-46.2-6-68.9-11.1c-23.9-5.4-47.4-12.2-70-21.7c-13.9-5.9-27.3-12.7-39.8-21.2
	c-0.5-0.3-1-0.7-1.5-1c-0.2-0.1-0.3-0.3-0.4-0.4c0-11,0-22,0-33.3c0.4,0.3,0.7,0.5,0.9,0.7c8.1,8.3,17.7,14.7,27.8,20.4
	c15.1,8.4,31.1,14.9,47.5,20.3c19.6,6.5,39.7,11.3,60,15.1c13.6,2.5,27.2,4.6,41,6.2c12.8,1.5,25.7,2.6,38.5,3.3
	c21.3,1.3,42.6,1.5,64,1c13-0.3,26-1.1,39-2.2c12.4-1,24.8-2.4,37.1-4.1c30.4-4.3,60.4-10.6,89.5-20.5c15.8-5.4,31.3-11.8,45.8-20.1
	c9.4-5.4,18.4-11.6,26-19.4C578.3,1495,578.5,1494.8,579.1,1494.4z"/>
<path  class='logi3' d="M61,1424.7c0-11.2,0-22.2,0-33.3c0.4,0.2,0.6,0.2,0.8,0.4c9.9,10.1,21.8,17.5,34.3,24c15.1,7.8,31,13.8,47.2,18.8
	c18.4,5.7,37.2,10.1,56.2,13.5c13.9,2.5,27.9,4.6,42,6.1c9.6,1,19.1,1.8,28.7,2.5c21.9,1.7,43.9,2,65.9,1.5
	c11.1-0.3,22.1-0.8,33.1-1.5c8.5-0.5,16.9-1.2,25.4-2.1c11.4-1.3,22.8-2.9,34.2-4.6c15.8-2.3,31.3-5.6,46.8-9.5
	c21.3-5.5,42.2-12.3,62.1-21.7c8.9-4.2,17.4-8.9,25.5-14.5c5.2-3.6,10.1-7.6,14.6-12.1c0.3-0.3,0.7-0.6,1-0.9
	c0.5,1.4,0.7,28.4,0.3,33.4c-0.6,0.4-1.3,0.9-2,1.4c-13,8.9-27.1,15.9-41.6,22c-19.9,8.2-40.4,14.4-61.2,19.4
	c-15.4,3.7-30.9,6.7-46.5,9c-9.7,1.4-19.4,2.7-29.2,3.7c-12,1.2-24.1,2.3-36.2,3c-17.5,1-35,1.5-52.5,1.1c-10.3-0.2-20.5-0.5-30.8-1
	c-8.3-0.4-16.7-1.1-25-1.8c-7-0.6-14-1.3-21-2.1c-7.8-1-15.7-2-23.5-3.2c-12.4-1.9-24.6-4.2-36.8-7c-26.5-6-52.4-13.7-77.2-24.9
	c-11.4-5.1-22.4-11-32.8-18.1C62.2,1425.5,61.6,1425.1,61,1424.7z"/>
<path  class='logi4' d="M579.1,1593.3c0,11.4,0,22.4,0,33.6c-0.6,0.4-1.2,0.9-1.9,1.3c-13.2,9.1-27.5,16.2-42.3,22.3c-20.5,8.5-41.8,14.7-63.4,19.8
	c-14,3.3-28.2,6-42.4,8.1c-8.3,1.3-16.7,2.4-25,3.3c-8.9,1-17.8,1.9-26.7,2.6c-7.9,0.6-15.8,1-23.7,1.4c-14.5,0.8-29,1-43.4,0.7
	c-12.8-0.3-25.5-0.8-38.3-1.5c-8.8-0.5-17.6-1.2-26.4-2.1c-34.8-3.5-69.2-9.5-102.8-19.2c-19.5-5.7-38.5-12.6-56.7-21.7
	c-8.1-4-15.9-8.5-23.3-13.6c-0.6-0.4-1.2-0.8-1.8-1.3c0-11.1,0-22.1,0-33.4c0.4,0.2,0.6,0.3,0.8,0.4c9.6,9.8,20.9,16.9,32.9,23.2
	c15.3,8,31.4,14.1,47.9,19.3c19,5.9,38.3,10.4,57.9,13.9c13,2.3,26.1,4.3,39.2,5.7c11.2,1.2,22.4,2.1,33.6,2.9
	c18.7,1.4,37.4,1.7,56.1,1.5c14.3-0.2,28.6-0.6,42.8-1.8c10.5-0.9,21-1.8,31.4-3c16.3-1.9,32.6-4.5,48.7-7.8
	c19.2-3.9,38.2-8.9,56.7-15.4c15-5.3,29.6-11.4,43.3-19.4c9.4-5.4,18.2-11.6,25.8-19.4C578.3,1593.8,578.6,1593.7,579.1,1593.3z"/>
</svg>
