<svg width="854" height="176" viewBox="0 0 854 176" fill="none" xmlns="http://www.w3.org/2000/svg">
<g filter="url(#filter0_f_16_3)">
<path d="M103.104 39.2V140H87.696L32.112 71.744V140H13.536V39.2H28.944L84.528 107.456V39.2H103.104ZM160.066 141.008C152.29 141.008 145.282 139.328 139.042 135.968C132.802 132.608 127.906 127.952 124.354 122C120.898 115.952 119.17 109.136 119.17 101.552C119.17 93.968 120.898 87.2 124.354 81.248C127.906 75.296 132.802 70.64 139.042 67.28C145.282 63.92 152.29 62.24 160.066 62.24C167.938 62.24 174.994 63.92 181.234 67.28C187.474 70.64 192.322 75.296 195.778 81.248C199.33 87.2 201.106 93.968 201.106 101.552C201.106 109.136 199.33 115.952 195.778 122C192.322 127.952 187.474 132.608 181.234 135.968C174.994 139.328 167.938 141.008 160.066 141.008ZM160.066 125.6C166.69 125.6 172.162 123.392 176.482 118.976C180.802 114.56 182.962 108.752 182.962 101.552C182.962 94.352 180.802 88.544 176.482 84.128C172.162 79.712 166.69 77.504 160.066 77.504C153.442 77.504 147.97 79.712 143.65 84.128C139.426 88.544 137.314 94.352 137.314 101.552C137.314 108.752 139.426 114.56 143.65 118.976C147.97 123.392 153.442 125.6 160.066 125.6ZM232.575 74.336C237.759 66.272 246.879 62.24 259.935 62.24V79.376C258.399 79.088 257.007 78.944 255.759 78.944C248.751 78.944 243.279 81.008 239.343 85.136C235.407 89.168 233.439 95.024 233.439 102.704V140H215.439V63.104H232.575V74.336ZM346.933 33.152V140H329.653V130.064C326.677 133.712 322.981 136.448 318.565 138.272C314.245 140.096 309.445 141.008 304.165 141.008C296.773 141.008 290.101 139.376 284.149 136.112C278.293 132.848 273.685 128.24 270.325 122.288C266.965 116.24 265.285 109.328 265.285 101.552C265.285 93.776 266.965 86.912 270.325 80.96C273.685 75.008 278.293 70.4 284.149 67.136C290.101 63.872 296.773 62.24 304.165 62.24C309.253 62.24 313.909 63.104 318.133 64.832C322.357 66.56 325.957 69.152 328.933 72.608V33.152H346.933ZM306.325 125.6C310.645 125.6 314.533 124.64 317.989 122.72C321.445 120.704 324.181 117.872 326.197 114.224C328.213 110.576 329.221 106.352 329.221 101.552C329.221 96.752 328.213 92.528 326.197 88.88C324.181 85.232 321.445 82.448 317.989 80.528C314.533 78.512 310.645 77.504 306.325 77.504C302.005 77.504 298.117 78.512 294.661 80.528C291.205 82.448 288.469 85.232 286.453 88.88C284.437 92.528 283.429 96.752 283.429 101.552C283.429 106.352 284.437 110.576 286.453 114.224C288.469 117.872 291.205 120.704 294.661 122.72C298.117 124.64 302.005 125.6 306.325 125.6Z" fill="white"/>
<path d="M103.104 39.2H104.104V38.2H103.104V39.2ZM103.104 140V141H104.104V140H103.104ZM87.696 140L86.9206 140.631L87.2207 141H87.696V140ZM32.112 71.744L32.8874 71.1125L31.112 68.9324V71.744H32.112ZM32.112 140V141H33.112V140H32.112ZM13.536 140H12.536V141H13.536V140ZM13.536 39.2V38.2H12.536V39.2H13.536ZM28.944 39.2L29.7194 38.5685L29.4193 38.2H28.944V39.2ZM84.528 107.456L83.7526 108.087L85.528 110.268V107.456H84.528ZM84.528 39.2V38.2H83.528V39.2H84.528ZM102.104 39.2V140H104.104V39.2H102.104ZM103.104 139H87.696V141H103.104V139ZM88.4714 139.369L32.8874 71.1125L31.3366 72.3754L86.9206 140.631L88.4714 139.369ZM31.112 71.744V140H33.112V71.744H31.112ZM32.112 139H13.536V141H32.112V139ZM14.536 140V39.2H12.536V140H14.536ZM13.536 40.2H28.944V38.2H13.536V40.2ZM28.1686 39.8314L83.7526 108.087L85.3034 106.825L29.7194 38.5685L28.1686 39.8314ZM85.528 107.456V39.2H83.528V107.456H85.528ZM84.528 40.2H103.104V38.2H84.528V40.2ZM139.042 135.968L139.516 135.088L139.516 135.088L139.042 135.968ZM124.354 122L123.486 122.496L123.491 122.504L123.495 122.512L124.354 122ZM124.354 81.248L123.495 80.7355L123.489 80.7459L124.354 81.248ZM139.042 67.28L139.516 68.1605L139.516 68.1605L139.042 67.28ZM181.234 67.28L180.76 68.1605L180.76 68.1605L181.234 67.28ZM195.778 81.248L194.913 81.7502L194.919 81.7605L195.778 81.248ZM195.778 122L194.916 121.494L194.913 121.498L195.778 122ZM181.234 135.968L180.76 135.088L180.76 135.088L181.234 135.968ZM176.482 118.976L175.767 118.277L175.767 118.277L176.482 118.976ZM176.482 84.128L175.767 84.8273L175.767 84.8273L176.482 84.128ZM143.65 84.128L142.935 83.4287L142.927 83.4368L143.65 84.128ZM143.65 118.976L142.927 119.667L142.935 119.675L143.65 118.976ZM160.066 140.008C152.439 140.008 145.597 138.362 139.516 135.088L138.568 136.848C144.968 140.294 152.141 142.008 160.066 142.008V140.008ZM139.516 135.088C133.432 131.811 128.67 127.281 125.213 121.488L123.495 122.512C127.142 128.623 132.173 133.405 138.568 136.848L139.516 135.088ZM125.222 121.504C121.86 115.62 120.17 108.978 120.17 101.552H118.17C118.17 109.294 119.936 116.284 123.486 122.496L125.222 121.504ZM120.17 101.552C120.17 94.1259 121.86 87.5344 125.219 81.7501L123.489 80.7459C119.936 86.8656 118.17 93.8101 118.17 101.552H120.17ZM125.213 81.7605C128.67 75.9672 133.432 71.4368 139.516 68.1605L138.568 66.3995C132.173 69.8432 127.142 74.6247 123.495 80.7355L125.213 81.7605ZM139.516 68.1605C145.597 64.8864 152.439 63.24 160.066 63.24V61.24C152.141 61.24 144.968 62.9536 138.568 66.3995L139.516 68.1605ZM160.066 63.24C167.791 63.24 174.681 64.8873 180.76 68.1605L181.708 66.3995C175.307 62.9527 168.085 61.24 160.066 61.24V63.24ZM180.76 68.1605C186.842 71.4356 191.553 75.9628 194.913 81.7501L196.643 80.7459C193.091 74.6292 188.106 69.8444 181.708 66.3995L180.76 68.1605ZM194.919 81.7605C198.37 87.5431 200.106 94.1309 200.106 101.552H202.106C202.106 93.8051 200.29 86.8569 196.637 80.7355L194.919 81.7605ZM200.106 101.552C200.106 108.973 198.37 115.612 194.916 121.494L196.64 122.506C200.29 116.292 202.106 109.299 202.106 101.552H200.106ZM194.913 121.498C191.553 127.285 186.842 131.812 180.76 135.088L181.708 136.848C188.106 133.404 193.091 128.619 196.643 122.502L194.913 121.498ZM180.76 135.088C174.681 138.361 167.791 140.008 160.066 140.008V142.008C168.085 142.008 175.307 140.295 181.708 136.848L180.76 135.088ZM160.066 126.6C166.938 126.6 172.674 124.299 177.197 119.675L175.767 118.277C171.65 122.485 166.443 124.6 160.066 124.6V126.6ZM177.197 119.675C181.73 115.042 183.962 108.967 183.962 101.552H181.962C181.962 108.537 179.874 114.078 175.767 118.277L177.197 119.675ZM183.962 101.552C183.962 94.1372 181.73 88.0624 177.197 83.4287L175.767 84.8273C179.874 89.0256 181.962 94.5668 181.962 101.552H183.962ZM177.197 83.4287C172.674 78.8055 166.938 76.504 160.066 76.504V78.504C166.443 78.504 171.65 80.6185 175.767 84.8273L177.197 83.4287ZM160.066 76.504C153.195 76.504 147.458 78.8055 142.935 83.4287L144.365 84.8273C148.482 80.6185 153.69 78.504 160.066 78.504V76.504ZM142.927 83.4368C138.494 88.0715 136.314 94.1435 136.314 101.552H138.314C138.314 94.5605 140.358 89.0164 144.373 84.8192L142.927 83.4368ZM136.314 101.552C136.314 108.96 138.494 115.032 142.927 119.667L144.373 118.285C140.358 114.088 138.314 108.544 138.314 101.552H136.314ZM142.935 119.675C147.458 124.299 153.195 126.6 160.066 126.6V124.6C153.69 124.6 148.482 122.485 144.365 118.277L142.935 119.675ZM232.575 74.336H231.575V77.7408L233.416 74.8768L232.575 74.336ZM259.935 62.24H260.935V61.24H259.935V62.24ZM259.935 79.376L259.75 80.3589L260.935 80.5809V79.376H259.935ZM239.343 85.136L240.058 85.8346L240.066 85.8261L239.343 85.136ZM233.439 140V141H234.439V140H233.439ZM215.439 140H214.439V141H215.439V140ZM215.439 63.104V62.104H214.439V63.104H215.439ZM232.575 63.104H233.575V62.104H232.575V63.104ZM233.416 74.8768C238.353 67.1974 247.083 63.24 259.935 63.24V61.24C246.675 61.24 237.165 65.3466 231.733 73.7952L233.416 74.8768ZM258.935 62.24V79.376H260.935V62.24H258.935ZM260.119 78.3931C258.537 78.0964 257.082 77.944 255.759 77.944V79.944C256.932 79.944 258.261 80.0796 259.75 80.3589L260.119 78.3931ZM255.759 77.944C248.544 77.944 242.785 80.0763 238.619 84.4459L240.066 85.8261C243.772 81.9397 248.957 79.944 255.759 79.944V77.944ZM238.627 84.4375C234.451 88.7156 232.439 94.8597 232.439 102.704H234.439C234.439 95.1883 236.363 89.6204 240.058 85.8345L238.627 84.4375ZM232.439 102.704V140H234.439V102.704H232.439ZM233.439 139H215.439V141H233.439V139ZM216.439 140V63.104H214.439V140H216.439ZM215.439 64.104H232.575V62.104H215.439V64.104ZM231.575 63.104V74.336H233.575V63.104H231.575ZM346.933 33.152H347.933V32.152H346.933V33.152ZM346.933 140V141H347.933V140H346.933ZM329.653 140H328.653V141H329.653V140ZM329.653 130.064H330.653V127.256L328.878 129.432L329.653 130.064ZM318.565 138.272L318.183 137.348L318.176 137.351L318.565 138.272ZM284.149 136.112L283.662 136.986L283.668 136.989L284.149 136.112ZM270.325 122.288L269.451 122.774L269.454 122.78L270.325 122.288ZM270.325 80.96L271.196 81.4516L271.196 81.4516L270.325 80.96ZM284.149 67.136L283.668 66.2592L283.662 66.2625L284.149 67.136ZM328.933 72.608L328.175 73.2605L329.933 75.3018V72.608H328.933ZM328.933 33.152V32.152H327.933V33.152H328.933ZM317.989 122.72L318.475 123.594L318.484 123.589L318.493 123.584L317.989 122.72ZM326.197 88.88L327.072 88.3963L327.072 88.3963L326.197 88.88ZM317.989 80.528L317.485 81.3918L317.494 81.3971L317.503 81.4022L317.989 80.528ZM294.661 80.528L295.147 81.4022L295.156 81.3971L295.165 81.3918L294.661 80.528ZM286.453 88.88L285.578 88.3963L285.578 88.3963L286.453 88.88ZM286.453 114.224L285.578 114.708L285.578 114.708L286.453 114.224ZM294.661 122.72L294.157 123.584L294.166 123.589L294.175 123.594L294.661 122.72ZM345.933 33.152V140H347.933V33.152H345.933ZM346.933 139H329.653V141H346.933V139ZM330.653 140V130.064H328.653V140H330.653ZM328.878 129.432C326.009 132.949 322.449 135.586 318.183 137.348L318.947 139.196C323.514 137.31 327.346 134.475 330.428 130.696L328.878 129.432ZM318.176 137.351C313.994 139.117 309.328 140.008 304.165 140.008V142.008C309.562 142.008 314.496 141.075 318.954 139.193L318.176 137.351ZM304.165 140.008C296.926 140.008 290.422 138.411 284.63 135.235L283.668 136.989C289.781 140.341 296.62 142.008 304.165 142.008V140.008ZM284.636 135.239C278.944 132.066 274.467 127.592 271.196 121.796L269.454 122.78C272.903 128.888 277.642 133.63 283.662 136.985L284.636 135.239ZM271.199 121.802C267.932 115.921 266.285 109.179 266.285 101.552H264.285C264.285 109.477 265.999 116.559 269.451 122.774L271.199 121.802ZM266.285 101.552C266.285 93.9242 267.932 87.2339 271.196 81.4516L269.454 80.4684C265.999 86.5901 264.285 93.6278 264.285 101.552H266.285ZM271.196 81.4516C274.467 75.6565 278.944 71.1821 284.636 68.0095L283.662 66.2625C277.642 69.6179 272.903 74.3595 269.454 80.4684L271.196 81.4516ZM284.63 68.0128C290.422 64.8367 296.926 63.24 304.165 63.24V61.24C296.62 61.24 289.781 62.9073 283.668 66.2592L284.63 68.0128ZM304.165 63.24C309.138 63.24 313.664 64.0841 317.754 65.7575L318.512 63.9065C314.155 62.1239 309.368 61.24 304.165 61.24V63.24ZM317.754 65.7575C321.832 67.4258 325.302 69.9243 328.175 73.2605L329.691 71.9555C326.612 68.3797 322.882 65.6942 318.512 63.9065L317.754 65.7575ZM329.933 72.608V33.152H327.933V72.608H329.933ZM328.933 34.152H346.933V32.152H328.933V34.152ZM306.325 126.6C310.799 126.6 314.857 125.604 318.475 123.594L317.503 121.846C314.21 123.676 310.491 124.6 306.325 124.6V126.6ZM318.493 123.584C322.111 121.473 324.973 118.507 327.072 114.708L325.322 113.74C323.389 117.237 320.779 119.935 317.485 121.856L318.493 123.584ZM327.072 114.708C329.182 110.89 330.221 106.495 330.221 101.552H328.221C328.221 106.209 327.244 110.262 325.322 113.74L327.072 114.708ZM330.221 101.552C330.221 96.6087 329.182 92.2135 327.072 88.3963L325.322 89.3637C327.244 92.8425 328.221 96.8953 328.221 101.552H330.221ZM327.072 88.3963C324.971 84.5935 322.104 81.6699 318.475 79.6538L317.503 81.4022C320.786 83.2261 323.391 85.8705 325.322 89.3637L327.072 88.3963ZM318.493 79.6642C314.872 77.5519 310.808 76.504 306.325 76.504V78.504C310.483 78.504 314.194 79.4721 317.485 81.3918L318.493 79.6642ZM306.325 76.504C301.843 76.504 297.778 77.5519 294.157 79.6642L295.165 81.3918C298.456 79.4721 302.168 78.504 306.325 78.504V76.504ZM294.175 79.6538C290.546 81.6699 287.679 84.5935 285.578 88.3963L287.328 89.3637C289.259 85.8705 291.864 83.2261 295.147 81.4022L294.175 79.6538ZM285.578 88.3963C283.468 92.2135 282.429 96.6087 282.429 101.552H284.429C284.429 96.8953 285.406 92.8425 287.328 89.3637L285.578 88.3963ZM282.429 101.552C282.429 106.495 283.468 110.89 285.578 114.708L287.328 113.74C285.406 110.262 284.429 106.209 284.429 101.552H282.429ZM285.578 114.708C287.677 118.507 290.539 121.473 294.157 123.584L295.165 121.856C291.871 119.935 289.261 117.237 287.328 113.74L285.578 114.708ZM294.175 123.594C297.794 125.604 301.851 126.6 306.325 126.6V124.6C302.159 124.6 298.441 123.676 295.147 121.846L294.175 123.594Z" fill="white"/>
</g>
<g filter="url(#filter1_f_16_3)">
<path d="M373.021 39.2H380.365V140H373.021V39.2ZM449.906 64.256C459.314 64.256 466.754 66.992 472.226 72.464C477.698 77.936 480.434 85.808 480.434 96.08V140H473.234V96.656C473.234 88.208 471.074 81.776 466.754 77.36C462.53 72.944 456.578 70.736 448.898 70.736C440.066 70.736 433.106 73.376 428.018 78.656C422.93 83.936 420.386 91.04 420.386 99.968V140H413.186V64.832H420.098V81.104C422.69 75.824 426.53 71.696 431.618 68.72C436.802 65.744 442.898 64.256 449.906 64.256ZM529.085 140.576C523.037 140.576 517.277 139.664 511.805 137.84C506.333 136.016 502.061 133.712 498.989 130.928L502.301 125.168C505.373 127.76 509.309 129.92 514.109 131.648C519.005 133.376 524.093 134.24 529.373 134.24C536.957 134.24 542.525 132.992 546.077 130.496C549.725 128 551.549 124.544 551.549 120.128C551.549 116.96 550.541 114.464 548.525 112.64C546.605 110.816 544.205 109.472 541.325 108.608C538.445 107.744 534.461 106.832 529.373 105.872C523.421 104.816 518.621 103.664 514.973 102.416C511.325 101.168 508.205 99.152 505.613 96.368C503.021 93.584 501.725 89.744 501.725 84.848C501.725 78.896 504.173 74 509.069 70.16C514.061 66.224 521.117 64.256 530.237 64.256C535.037 64.256 539.789 64.928 544.493 66.272C549.197 67.616 553.037 69.392 556.013 71.6L552.701 77.36C549.629 75.152 546.125 73.472 542.189 72.32C538.253 71.168 534.221 70.592 530.093 70.592C523.085 70.592 517.805 71.888 514.253 74.48C510.701 77.072 508.925 80.48 508.925 84.704C508.925 88.064 509.933 90.704 511.949 92.624C513.965 94.448 516.413 95.84 519.293 96.8C522.269 97.664 526.397 98.624 531.677 99.68C537.533 100.736 542.237 101.888 545.789 103.136C549.437 104.288 552.509 106.208 555.005 108.896C557.501 111.584 558.749 115.28 558.749 119.984C558.749 126.224 556.157 131.216 550.973 134.96C545.789 138.704 538.493 140.576 529.085 140.576ZM578.842 64.832H586.042V140H578.842V64.832ZM582.442 46.544C580.81 46.544 579.418 46.016 578.266 44.96C577.114 43.808 576.538 42.416 576.538 40.784C576.538 39.152 577.114 37.76 578.266 36.608C579.418 35.456 580.81 34.88 582.442 34.88C584.074 34.88 585.466 35.456 586.618 36.608C587.77 37.664 588.346 39.008 588.346 40.64C588.346 42.272 587.77 43.664 586.618 44.816C585.466 45.968 584.074 46.544 582.442 46.544ZM684.069 64.832V131.936C684.069 144.416 681.045 153.632 674.997 159.584C668.949 165.536 659.829 168.512 647.637 168.512C640.725 168.512 634.197 167.456 628.053 165.344C621.909 163.232 616.965 160.304 613.221 156.56L617.109 151.088C620.853 154.544 625.365 157.232 630.645 159.152C635.925 161.072 641.541 162.032 647.493 162.032C657.477 162.032 664.869 159.632 669.669 154.832C674.469 150.128 676.869 142.784 676.869 132.8V120.128C673.797 125.6 669.525 129.824 664.053 132.8C658.581 135.776 652.437 137.264 645.621 137.264C638.613 137.264 632.229 135.728 626.469 132.656C620.805 129.488 616.341 125.12 613.077 119.552C609.813 113.984 608.181 107.696 608.181 100.688C608.181 93.68 609.813 87.392 613.077 81.824C616.341 76.256 620.805 71.936 626.469 68.864C632.229 65.792 638.613 64.256 645.621 64.256C652.533 64.256 658.773 65.792 664.341 68.864C669.909 71.936 674.181 76.256 677.157 81.824V64.832H684.069ZM646.197 130.784C652.053 130.784 657.333 129.536 662.037 127.04C666.741 124.448 670.389 120.896 672.981 116.384C675.669 111.776 677.013 106.544 677.013 100.688C677.013 94.832 675.669 89.648 672.981 85.136C670.389 80.624 666.741 77.12 662.037 74.624C657.333 72.032 652.053 70.736 646.197 70.736C640.341 70.736 635.061 72.032 630.357 74.624C625.749 77.12 622.101 80.624 619.413 85.136C616.821 89.648 615.525 94.832 615.525 100.688C615.525 106.544 616.821 111.776 619.413 116.384C622.101 120.896 625.749 124.448 630.357 127.04C635.061 129.536 640.341 130.784 646.197 130.784ZM751.265 64.256C760.673 64.256 768.113 66.992 773.585 72.464C779.057 77.936 781.793 85.808 781.793 96.08V140H774.593V96.656C774.593 88.208 772.433 81.776 768.113 77.36C763.889 72.944 757.937 70.736 750.257 70.736C741.425 70.736 734.465 73.376 729.377 78.656C724.289 83.936 721.745 91.04 721.745 99.968V140H714.545V33.152H721.745V80.528C724.337 75.344 728.177 71.36 733.265 68.576C738.353 65.696 744.353 64.256 751.265 64.256ZM848.732 135.248C846.908 136.976 844.604 138.32 841.82 139.28C839.132 140.144 836.3 140.576 833.324 140.576C826.796 140.576 821.756 138.8 818.204 135.248C814.652 131.6 812.876 126.56 812.876 120.128V71.024H799.052V64.832H812.876V48.416H820.076V64.832H843.98V71.024H820.076V119.408C820.076 124.304 821.228 128.048 823.532 130.64C825.932 133.136 829.436 134.384 834.044 134.384C838.748 134.384 842.636 132.992 845.708 130.208L848.732 135.248Z" fill="white"/>
<path d="M373.021 39.2V36.2H370.021V39.2H373.021ZM380.365 39.2H383.365V36.2H380.365V39.2ZM380.365 140V143H383.365V140H380.365ZM373.021 140H370.021V143H373.021V140ZM373.021 42.2H380.365V36.2H373.021V42.2ZM377.365 39.2V140H383.365V39.2H377.365ZM380.365 137H373.021V143H380.365V137ZM376.021 140V39.2H370.021V140H376.021ZM480.434 140V143H483.434V140H480.434ZM473.234 140H470.234V143H473.234V140ZM466.754 77.36L464.586 79.4337L464.598 79.4458L464.609 79.4579L466.754 77.36ZM428.018 78.656L425.858 76.5743L425.858 76.5743L428.018 78.656ZM420.386 140V143H423.386V140H420.386ZM413.186 140H410.186V143H413.186V140ZM413.186 64.832V61.832H410.186V64.832H413.186ZM420.098 64.832H423.098V61.832H420.098V64.832ZM420.098 81.104H417.098L422.791 82.426L420.098 81.104ZM431.618 68.72L430.124 66.1182L430.114 66.1243L430.103 66.1304L431.618 68.72ZM449.906 67.256C458.701 67.256 465.313 69.7933 470.105 74.5853L474.347 70.3427C468.195 64.1907 459.927 61.256 449.906 61.256V67.256ZM470.105 74.5853C474.848 79.3291 477.434 86.3341 477.434 96.08H483.434C483.434 85.2819 480.547 76.5428 474.347 70.3427L470.105 74.5853ZM477.434 96.08V140H483.434V96.08H477.434ZM480.434 137H473.234V143H480.434V137ZM476.234 140V96.656H470.234V140H476.234ZM476.234 96.656C476.234 87.7178 473.943 80.4187 468.898 75.2621L464.609 79.4579C468.205 83.1333 470.234 88.6982 470.234 96.656H476.234ZM468.922 75.2863C463.994 70.1347 457.173 67.736 448.898 67.736V73.736C455.982 73.736 461.066 75.7533 464.586 79.4337L468.922 75.2863ZM448.898 67.736C439.43 67.736 431.624 70.5899 425.858 76.5743L430.178 80.7377C434.587 76.1621 440.702 73.736 448.898 73.736V67.736ZM425.858 76.5743C420.118 82.5302 417.386 90.4425 417.386 99.968H423.386C423.386 91.6375 425.741 85.3418 430.178 80.7377L425.858 76.5743ZM417.386 99.968V140H423.386V99.968H417.386ZM420.386 137H413.186V143H420.386V137ZM416.186 140V64.832H410.186V140H416.186ZM413.186 67.832H420.098V61.832H413.186V67.832ZM417.098 64.832V81.104H423.098V64.832H417.098ZM422.791 82.426C425.123 77.6763 428.552 73.9887 433.133 71.3096L430.103 66.1304C424.508 69.4033 420.257 73.9717 417.405 79.782L422.791 82.426ZM433.111 71.3218C437.768 68.6486 443.331 67.256 449.906 67.256V61.256C442.465 61.256 435.836 62.8394 430.124 66.1182L433.111 71.3218ZM511.805 137.84L510.856 140.686L511.805 137.84ZM498.989 130.928L496.388 129.433L495.183 131.528L496.974 133.151L498.989 130.928ZM502.301 125.168L504.235 122.875L501.49 120.559L499.7 123.673L502.301 125.168ZM514.109 131.648L513.092 134.471L513.101 134.474L513.11 134.477L514.109 131.648ZM546.077 130.496L544.382 128.02L544.367 128.031L544.352 128.041L546.077 130.496ZM548.525 112.64L546.458 114.815L546.485 114.84L546.512 114.865L548.525 112.64ZM529.373 105.872L529.929 102.924L529.913 102.921L529.897 102.918L529.373 105.872ZM514.973 102.416L514.001 105.254L514.001 105.254L514.973 102.416ZM505.613 96.368L503.417 98.4123L503.417 98.4123L505.613 96.368ZM509.069 70.16L510.92 72.5206L510.926 72.5158L509.069 70.16ZM544.493 66.272L545.317 63.3874L545.317 63.3874L544.493 66.272ZM556.013 71.6L558.613 73.0954L559.944 70.7813L557.8 69.1907L556.013 71.6ZM552.701 77.36L550.95 79.796L553.646 81.7341L555.301 78.8554L552.701 77.36ZM542.189 72.32L543.031 69.4408L543.031 69.4408L542.189 72.32ZM514.253 74.48L516.021 76.9034L516.021 76.9034L514.253 74.48ZM511.949 92.624L509.88 94.7964L509.907 94.8229L509.936 94.8486L511.949 92.624ZM519.293 96.8L518.344 99.646L518.4 99.6646L518.456 99.681L519.293 96.8ZM531.677 99.68L531.088 102.622L531.116 102.627L531.144 102.632L531.677 99.68ZM545.789 103.136L544.794 105.966L544.839 105.982L544.885 105.997L545.789 103.136ZM555.005 108.896L552.806 110.937L552.806 110.937L555.005 108.896ZM550.973 134.96L549.216 132.528L549.216 132.528L550.973 134.96ZM529.085 137.576C523.343 137.576 517.905 136.711 512.753 134.994L510.856 140.686C516.648 142.617 522.73 143.576 529.085 143.576V137.576ZM512.753 134.994C507.532 133.253 503.671 131.123 501.003 128.705L496.974 133.151C500.45 136.301 505.133 138.779 510.856 140.686L512.753 134.994ZM501.589 132.423L504.901 126.663L499.7 123.673L496.388 129.433L501.589 132.423ZM500.366 127.461C503.772 130.335 508.043 132.653 513.092 134.471L515.125 128.825C510.574 127.187 506.973 125.185 504.235 122.875L500.366 127.461ZM513.11 134.477C518.332 136.32 523.758 137.24 529.373 137.24V131.24C524.427 131.24 519.677 130.432 515.107 128.819L513.11 134.477ZM529.373 137.24C537.166 137.24 543.49 135.98 547.801 132.951L544.352 128.041C541.559 130.004 536.747 131.24 529.373 131.24V137.24ZM547.771 132.972C552.235 129.917 554.549 125.535 554.549 120.128H548.549C548.549 123.553 547.214 126.083 544.382 128.02L547.771 132.972ZM554.549 120.128C554.549 116.266 553.288 112.904 550.537 110.415L546.512 114.865C547.793 116.024 548.549 117.654 548.549 120.128H554.549ZM550.591 110.465C548.286 108.276 545.456 106.715 542.187 105.735L540.462 111.481C542.953 112.229 544.923 113.356 546.458 114.815L550.591 110.465ZM542.187 105.735C539.16 104.826 535.058 103.892 529.929 102.924L528.816 108.82C533.863 109.772 537.729 110.662 540.462 111.481L542.187 105.735ZM529.897 102.918C524.021 101.876 519.388 100.756 515.944 99.5775L514.001 105.254C517.853 106.572 522.82 107.756 528.848 108.826L529.897 102.918ZM515.944 99.5775C512.756 98.4871 510.059 96.7411 507.808 94.3237L503.417 98.4123C506.35 101.563 509.893 103.849 514.001 105.254L515.944 99.5775ZM507.808 94.3237C505.869 92.2404 504.725 89.2108 504.725 84.848H498.725C498.725 90.2772 500.172 94.9276 503.417 98.4123L507.808 94.3237ZM504.725 84.848C504.725 79.865 506.711 75.8218 510.92 72.5206L507.217 67.7994C501.634 72.1781 498.725 77.927 498.725 84.848H504.725ZM510.926 72.5158C515.202 69.1446 521.505 67.256 530.237 67.256V61.256C520.728 61.256 512.919 63.3034 507.211 67.8042L510.926 72.5158ZM530.237 67.256C534.752 67.256 539.227 67.8877 543.668 69.1566L545.317 63.3874C540.35 61.9683 535.321 61.256 530.237 61.256V67.256ZM543.668 69.1566C548.13 70.4314 551.615 72.073 554.225 74.0093L557.8 69.1907C554.458 66.711 550.263 64.8006 545.317 63.3874L543.668 69.1566ZM553.412 70.1046L550.1 75.8646L555.301 78.8554L558.613 73.0954L553.412 70.1046ZM554.451 74.9239C551.082 72.5019 547.265 70.6801 543.031 69.4408L541.346 75.1992C544.984 76.2639 548.175 77.802 550.95 79.796L554.451 74.9239ZM543.031 69.4408C538.82 68.2081 534.504 67.592 530.093 67.592V73.592C533.937 73.592 537.685 74.1279 541.346 75.1992L543.031 69.4408ZM530.093 67.592C522.798 67.592 516.774 68.9264 512.484 72.0566L516.021 76.9034C518.835 74.8496 523.371 73.592 530.093 73.592V67.592ZM512.484 72.0566C508.196 75.1861 505.925 79.4765 505.925 84.704H511.925C511.925 81.4835 513.205 78.9579 516.021 76.9034L512.484 72.0566ZM505.925 84.704C505.925 88.7021 507.148 92.1953 509.88 94.7964L514.017 90.4516C512.717 89.2127 511.925 87.4259 511.925 84.704H505.925ZM509.936 94.8486C512.294 96.982 515.116 98.5701 518.344 99.646L520.241 93.9539C517.709 93.1099 515.635 91.914 513.961 90.3994L509.936 94.8486ZM518.456 99.681C521.552 100.58 525.776 101.559 531.088 102.622L532.265 96.7383C527.017 95.6887 522.985 94.7481 520.129 93.919L518.456 99.681ZM531.144 102.632C536.922 103.674 541.453 104.792 544.794 105.966L546.783 100.306C543.02 98.9835 538.143 97.7977 532.209 96.7276L531.144 102.632ZM544.885 105.997C548.06 106.999 550.679 108.647 552.806 110.937L557.203 106.855C554.338 103.769 550.813 101.577 546.692 100.275L544.885 105.997ZM552.806 110.937C554.654 112.927 555.749 115.816 555.749 119.984H561.749C561.749 114.744 560.347 110.241 557.203 106.855L552.806 110.937ZM555.749 119.984C555.749 125.233 553.642 129.331 549.216 132.528L552.729 137.392C558.671 133.101 561.749 127.215 561.749 119.984H555.749ZM549.216 132.528C544.733 135.766 538.145 137.576 529.085 137.576V143.576C538.84 143.576 546.844 141.642 552.729 137.392L549.216 132.528ZM578.842 64.832V61.832H575.842V64.832H578.842ZM586.042 64.832H589.042V61.832H586.042V64.832ZM586.042 140V143H589.042V140H586.042ZM578.842 140H575.842V143H578.842V140ZM578.266 44.96L576.145 47.0813L576.191 47.1274L576.239 47.1715L578.266 44.96ZM578.266 36.608L576.145 34.4867L576.145 34.4867L578.266 36.608ZM586.618 36.608L584.497 38.7293L584.543 38.7754L584.591 38.8195L586.618 36.608ZM586.618 44.816L588.739 46.9373L588.739 46.9373L586.618 44.816ZM578.842 67.832H586.042V61.832H578.842V67.832ZM583.042 64.832V140H589.042V64.832H583.042ZM586.042 137H578.842V143H586.042V137ZM581.842 140V64.832H575.842V140H581.842ZM582.442 43.544C581.524 43.544 580.866 43.2732 580.293 42.7485L576.239 47.1715C577.971 48.7588 580.096 49.544 582.442 49.544V43.544ZM580.387 42.8387C579.799 42.2504 579.538 41.6219 579.538 40.784H573.538C573.538 43.2101 574.429 45.3656 576.145 47.0813L580.387 42.8387ZM579.538 40.784C579.538 39.9461 579.799 39.3176 580.387 38.7293L576.145 34.4867C574.429 36.2024 573.538 38.3579 573.538 40.784H579.538ZM580.387 38.7293C580.976 38.141 581.604 37.88 582.442 37.88V31.88C580.016 31.88 577.861 32.771 576.145 34.4867L580.387 38.7293ZM582.442 37.88C583.28 37.88 583.909 38.141 584.497 38.7293L588.739 34.4867C587.024 32.771 584.868 31.88 582.442 31.88V37.88ZM584.591 38.8195C585.093 39.2794 585.346 39.8068 585.346 40.64H591.346C591.346 38.2092 590.448 36.0486 588.645 34.3965L584.591 38.8195ZM585.346 40.64C585.346 41.4779 585.085 42.1064 584.497 42.6947L588.739 46.9373C590.455 45.2216 591.346 43.0661 591.346 40.64H585.346ZM584.497 42.6947C583.909 43.283 583.28 43.544 582.442 43.544V49.544C584.868 49.544 587.024 48.653 588.739 46.9373L584.497 42.6947ZM684.069 64.832H687.069V61.832H684.069V64.832ZM674.997 159.584L672.893 157.446L672.893 157.446L674.997 159.584ZM628.053 165.344L627.078 168.181L627.078 168.181L628.053 165.344ZM613.221 156.56L610.775 154.822L609.307 156.889L611.1 158.681L613.221 156.56ZM617.109 151.088L619.144 148.884L616.638 146.571L614.663 149.35L617.109 151.088ZM630.645 159.152L631.67 156.333L631.67 156.333L630.645 159.152ZM669.669 154.832L667.569 152.689L667.558 152.7L667.548 152.711L669.669 154.832ZM676.869 120.128H679.869V108.656L674.253 118.659L676.869 120.128ZM664.053 132.8L662.62 130.165L662.62 130.165L664.053 132.8ZM626.469 132.656L625.005 135.274L625.031 135.289L625.057 135.303L626.469 132.656ZM626.469 68.864L625.057 66.2169L625.048 66.2219L625.039 66.2269L626.469 68.864ZM677.157 81.824L674.511 83.2381L680.157 81.824H677.157ZM677.157 64.832V61.832H674.157V64.832H677.157ZM662.037 127.04L663.443 129.69L663.464 129.679L663.485 129.668L662.037 127.04ZM672.981 116.384L670.39 114.872L670.385 114.881L670.38 114.89L672.981 116.384ZM672.981 85.136L670.38 86.6304L670.392 86.651L670.404 86.6714L672.981 85.136ZM662.037 74.624L660.589 77.2515L660.61 77.2629L660.631 77.274L662.037 74.624ZM630.357 74.624L631.786 77.2619L631.795 77.2567L631.805 77.2515L630.357 74.624ZM619.413 85.136L616.836 83.6006L616.824 83.621L616.812 83.6416L619.413 85.136ZM619.413 116.384L616.798 117.855L616.817 117.887L616.836 117.919L619.413 116.384ZM630.357 127.04L628.886 129.655L628.918 129.673L628.951 129.69L630.357 127.04ZM681.069 64.832V131.936H687.069V64.832H681.069ZM681.069 131.936C681.069 143.99 678.145 152.277 672.893 157.446L677.101 161.722C683.945 154.987 687.069 144.842 687.069 131.936H681.069ZM672.893 157.446C667.611 162.643 659.386 165.512 647.637 165.512V171.512C660.272 171.512 670.287 168.429 677.101 161.722L672.893 157.446ZM647.637 165.512C641.036 165.512 634.839 164.504 629.028 162.507L627.078 168.181C633.555 170.408 640.414 171.512 647.637 171.512V165.512ZM629.028 162.507C623.22 160.51 618.699 157.795 615.342 154.439L611.1 158.681C615.231 162.813 620.598 165.954 627.078 168.181L629.028 162.507ZM615.667 158.298L619.555 152.826L614.663 149.35L610.775 154.822L615.667 158.298ZM615.074 153.292C619.139 157.045 624.004 159.929 629.62 161.971L631.67 156.333C626.726 154.535 622.567 152.043 619.144 148.884L615.074 153.292ZM629.62 161.971C635.247 164.018 641.212 165.032 647.493 165.032V159.032C641.87 159.032 636.603 158.126 631.67 156.333L629.62 161.971ZM647.493 165.032C657.9 165.032 666.21 162.534 671.79 156.953L667.548 152.711C663.528 156.73 657.054 159.032 647.493 159.032V165.032ZM671.769 156.975C677.373 151.482 679.869 143.201 679.869 132.8H673.869C673.869 142.367 671.565 148.774 667.569 152.689L671.769 156.975ZM679.869 132.8V120.128H673.869V132.8H679.869ZM674.253 118.659C671.455 123.643 667.592 127.461 662.62 130.165L665.486 135.435C671.458 132.187 676.139 127.557 679.485 121.597L674.253 118.659ZM662.62 130.165C657.628 132.879 651.985 134.264 645.621 134.264V140.264C652.889 140.264 659.534 138.673 665.486 135.435L662.62 130.165ZM645.621 134.264C639.068 134.264 633.175 132.832 627.881 130.009L625.057 135.303C631.283 138.624 638.158 140.264 645.621 140.264V134.264ZM627.933 130.038C622.733 127.129 618.658 123.14 615.665 118.035L610.489 121.069C614.024 127.1 618.877 131.847 625.005 135.274L627.933 130.038ZM615.665 118.035C612.694 112.966 611.181 107.21 611.181 100.688H605.181C605.181 108.182 606.932 115.002 610.489 121.069L615.665 118.035ZM611.181 100.688C611.181 94.1661 612.694 88.4099 615.665 83.3412L610.489 80.3068C606.932 86.3741 605.181 93.1939 605.181 100.688H611.181ZM615.665 83.3412C618.653 78.2442 622.717 74.3119 627.899 71.5011L625.039 66.2269C618.893 69.5601 614.029 74.2678 610.489 80.3068L615.665 83.3412ZM627.881 71.5111C633.175 68.6877 639.068 67.256 645.621 67.256V61.256C638.158 61.256 631.283 62.8963 625.057 66.2169L627.881 71.5111ZM645.621 67.256C652.071 67.256 657.806 68.6845 662.892 71.4907L665.79 66.2373C659.74 62.8995 652.995 61.256 645.621 61.256V67.256ZM662.892 71.4907C667.956 74.2848 671.811 78.1854 674.511 83.2381L679.803 80.4099C676.551 74.3266 671.862 69.5872 665.79 66.2373L662.892 71.4907ZM680.157 81.824V64.832H674.157V81.824H680.157ZM677.157 67.832H684.069V61.832H677.157V67.832ZM646.197 133.784C652.493 133.784 658.264 132.438 663.443 129.69L660.631 124.39C656.402 126.634 651.613 127.784 646.197 127.784V133.784ZM663.485 129.668C668.654 126.819 672.708 122.882 675.582 117.878L670.38 114.89C668.07 118.91 664.828 122.077 660.589 124.412L663.485 129.668ZM675.572 117.896C678.554 112.785 680.013 107.022 680.013 100.688H674.013C674.013 106.066 672.784 110.767 670.39 114.872L675.572 117.896ZM680.013 100.688C680.013 94.3552 678.554 88.6289 675.558 83.6006L670.404 86.6714C672.784 90.6671 674.013 95.3088 674.013 100.688H680.013ZM675.582 83.6416C672.702 78.6275 668.634 74.7283 663.443 71.9739L660.631 77.274C664.848 79.5116 668.076 82.6205 670.38 86.6304L675.582 83.6416ZM663.485 71.9965C658.298 69.1385 652.512 67.736 646.197 67.736V73.736C651.594 73.736 656.368 74.9255 660.589 77.2515L663.485 71.9965ZM646.197 67.736C639.882 67.736 634.096 69.1385 628.909 71.9965L631.805 77.2515C636.026 74.9255 640.8 73.736 646.197 73.736V67.736ZM628.928 71.9861C623.844 74.7401 619.8 78.6254 616.836 83.6006L621.99 86.6714C624.402 82.6226 627.654 79.4999 631.786 77.2619L628.928 71.9861ZM616.812 83.6416C613.927 88.6632 612.525 94.3747 612.525 100.688H618.525C618.525 95.2893 619.715 90.6328 622.014 86.6304L616.812 83.6416ZM612.525 100.688C612.525 107.002 613.927 112.751 616.798 117.855L622.028 114.913C619.715 110.801 618.525 106.086 618.525 100.688H612.525ZM616.836 117.919C619.794 122.885 623.825 126.808 628.886 129.655L631.828 124.425C627.673 122.088 624.408 118.907 621.99 114.849L616.836 117.919ZM628.951 129.69C634.13 132.438 639.901 133.784 646.197 133.784V127.784C640.781 127.784 635.992 126.634 631.763 124.39L628.951 129.69ZM781.793 140V143H784.793V140H781.793ZM774.593 140H771.593V143H774.593V140ZM768.113 77.36L765.945 79.4337L765.957 79.4458L765.969 79.4579L768.113 77.36ZM729.377 78.656L727.217 76.5743L727.217 76.5743L729.377 78.656ZM721.745 140V143H724.745V140H721.745ZM714.545 140H711.545V143H714.545V140ZM714.545 33.152V30.152H711.545V33.152H714.545ZM721.745 33.152H724.745V30.152H721.745V33.152ZM721.745 80.528H718.745L724.429 81.8696L721.745 80.528ZM733.265 68.576L734.705 71.2078L734.724 71.1974L734.743 71.1868L733.265 68.576ZM751.265 67.256C760.061 67.256 766.672 69.7933 771.464 74.5853L775.707 70.3427C769.555 64.1907 761.286 61.256 751.265 61.256V67.256ZM771.464 74.5853C776.208 79.3291 778.793 86.3341 778.793 96.08H784.793C784.793 85.2819 781.907 76.5428 775.707 70.3427L771.464 74.5853ZM778.793 96.08V140H784.793V96.08H778.793ZM781.793 137H774.593V143H781.793V137ZM777.593 140V96.656H771.593V140H777.593ZM777.593 96.656C777.593 87.7178 775.302 80.4187 770.258 75.2621L765.969 79.4579C769.564 83.1333 771.593 88.6982 771.593 96.656H777.593ZM770.281 75.2863C765.354 70.1347 758.533 67.736 750.257 67.736V73.736C757.342 73.736 762.425 75.7533 765.945 79.4337L770.281 75.2863ZM750.257 67.736C740.79 67.736 732.984 70.5899 727.217 76.5743L731.537 80.7377C735.947 76.1621 742.061 73.736 750.257 73.736V67.736ZM727.217 76.5743C721.478 82.5302 718.745 90.4425 718.745 99.968H724.745C724.745 91.6375 727.101 85.3418 731.537 80.7377L727.217 76.5743ZM718.745 99.968V140H724.745V99.968H718.745ZM721.745 137H714.545V143H721.745V137ZM717.545 140V33.152H711.545V140H717.545ZM714.545 36.152H721.745V30.152H714.545V36.152ZM718.745 33.152V80.528H724.745V33.152H718.745ZM724.429 81.8696C726.747 77.2327 730.153 73.6986 734.705 71.2078L731.825 65.9442C726.201 69.0214 721.927 73.4553 719.062 79.1864L724.429 81.8696ZM734.743 71.1868C739.304 68.6048 744.776 67.256 751.265 67.256V61.256C743.93 61.256 737.402 62.7872 731.787 65.9652L734.743 71.1868ZM848.732 135.248L850.795 137.426L852.543 135.77L851.304 133.705L848.732 135.248ZM841.82 139.28L842.738 142.136L842.768 142.126L842.798 142.116L841.82 139.28ZM818.204 135.248L816.054 137.341L816.068 137.355L816.083 137.369L818.204 135.248ZM812.876 71.024H815.876V68.024H812.876V71.024ZM799.052 71.024H796.052V74.024H799.052V71.024ZM799.052 64.832V61.832H796.052V64.832H799.052ZM812.876 64.832V67.832H815.876V64.832H812.876ZM812.876 48.416V45.416H809.876V48.416H812.876ZM820.076 48.416H823.076V45.416H820.076V48.416ZM820.076 64.832H817.076V67.832H820.076V64.832ZM843.98 64.832H846.98V61.832H843.98V64.832ZM843.98 71.024V74.024H846.98V71.024H843.98ZM820.076 71.024V68.024H817.076V71.024H820.076ZM823.532 130.64L821.29 132.633L821.329 132.677L821.369 132.719L823.532 130.64ZM845.708 130.208L848.28 128.665L846.401 125.532L843.693 127.985L845.708 130.208ZM846.669 133.07C845.204 134.457 843.29 135.6 840.842 136.444L842.798 142.116C845.917 141.04 848.612 139.495 850.795 137.426L846.669 133.07ZM840.902 136.424C838.526 137.188 836.005 137.576 833.324 137.576V143.576C836.595 143.576 839.738 143.1 842.738 142.136L840.902 136.424ZM833.324 137.576C827.343 137.576 823.16 135.962 820.325 133.127L816.083 137.369C820.351 141.638 826.249 143.576 833.324 143.576V137.576ZM820.353 133.155C817.481 130.205 815.876 125.994 815.876 120.128H809.876C809.876 127.126 811.823 132.995 816.054 137.341L820.353 133.155ZM815.876 120.128V71.024H809.876V120.128H815.876ZM812.876 68.024H799.052V74.024H812.876V68.024ZM802.052 71.024V64.832H796.052V71.024H802.052ZM799.052 67.832H812.876V61.832H799.052V67.832ZM815.876 64.832V48.416H809.876V64.832H815.876ZM812.876 51.416H820.076V45.416H812.876V51.416ZM817.076 48.416V64.832H823.076V48.416H817.076ZM820.076 67.832H843.98V61.832H820.076V67.832ZM840.98 64.832V71.024H846.98V64.832H840.98ZM843.98 68.024H820.076V74.024H843.98V68.024ZM817.076 71.024V119.408H823.076V71.024H817.076ZM817.076 119.408C817.076 124.738 818.329 129.302 821.29 132.633L825.774 128.647C824.127 126.794 823.076 123.87 823.076 119.408H817.076ZM821.369 132.719C824.504 135.979 828.901 137.384 834.044 137.384V131.384C829.971 131.384 827.36 130.293 825.694 128.561L821.369 132.719ZM834.044 137.384C839.385 137.384 844.024 135.783 847.722 132.431L843.693 127.985C841.248 130.201 838.111 131.384 834.044 131.384V137.384ZM843.135 131.751L846.159 136.791L851.304 133.705L848.28 128.665L843.135 131.751Z" fill="url(#paint0_linear_16_3)"/>
</g>
<path d="M103.104 39.2V140H87.696L32.112 71.744V140H13.536V39.2H28.944L84.528 107.456V39.2H103.104ZM160.066 141.008C152.29 141.008 145.282 139.328 139.042 135.968C132.802 132.608 127.906 127.952 124.354 122C120.898 115.952 119.17 109.136 119.17 101.552C119.17 93.968 120.898 87.2 124.354 81.248C127.906 75.296 132.802 70.64 139.042 67.28C145.282 63.92 152.29 62.24 160.066 62.24C167.938 62.24 174.994 63.92 181.234 67.28C187.474 70.64 192.322 75.296 195.778 81.248C199.33 87.2 201.106 93.968 201.106 101.552C201.106 109.136 199.33 115.952 195.778 122C192.322 127.952 187.474 132.608 181.234 135.968C174.994 139.328 167.938 141.008 160.066 141.008ZM160.066 125.6C166.69 125.6 172.162 123.392 176.482 118.976C180.802 114.56 182.962 108.752 182.962 101.552C182.962 94.352 180.802 88.544 176.482 84.128C172.162 79.712 166.69 77.504 160.066 77.504C153.442 77.504 147.97 79.712 143.65 84.128C139.426 88.544 137.314 94.352 137.314 101.552C137.314 108.752 139.426 114.56 143.65 118.976C147.97 123.392 153.442 125.6 160.066 125.6ZM232.575 74.336C237.759 66.272 246.879 62.24 259.935 62.24V79.376C258.399 79.088 257.007 78.944 255.759 78.944C248.751 78.944 243.279 81.008 239.343 85.136C235.407 89.168 233.439 95.024 233.439 102.704V140H215.439V63.104H232.575V74.336ZM346.933 33.152V140H329.653V130.064C326.677 133.712 322.981 136.448 318.565 138.272C314.245 140.096 309.445 141.008 304.165 141.008C296.773 141.008 290.101 139.376 284.149 136.112C278.293 132.848 273.685 128.24 270.325 122.288C266.965 116.24 265.285 109.328 265.285 101.552C265.285 93.776 266.965 86.912 270.325 80.96C273.685 75.008 278.293 70.4 284.149 67.136C290.101 63.872 296.773 62.24 304.165 62.24C309.253 62.24 313.909 63.104 318.133 64.832C322.357 66.56 325.957 69.152 328.933 72.608V33.152H346.933ZM306.325 125.6C310.645 125.6 314.533 124.64 317.989 122.72C321.445 120.704 324.181 117.872 326.197 114.224C328.213 110.576 329.221 106.352 329.221 101.552C329.221 96.752 328.213 92.528 326.197 88.88C324.181 85.232 321.445 82.448 317.989 80.528C314.533 78.512 310.645 77.504 306.325 77.504C302.005 77.504 298.117 78.512 294.661 80.528C291.205 82.448 288.469 85.232 286.453 88.88C284.437 92.528 283.429 96.752 283.429 101.552C283.429 106.352 284.437 110.576 286.453 114.224C288.469 117.872 291.205 120.704 294.661 122.72C298.117 124.64 302.005 125.6 306.325 125.6ZM373.361 39.2H380.705V140H373.361V39.2ZM450.245 64.256C459.653 64.256 467.093 66.992 472.565 72.464C478.037 77.936 480.773 85.808 480.773 96.08V140H473.573V96.656C473.573 88.208 471.413 81.776 467.093 77.36C462.869 72.944 456.917 70.736 449.237 70.736C440.405 70.736 433.445 73.376 428.357 78.656C423.269 83.936 420.725 91.04 420.725 99.968V140H413.525V64.832H420.437V81.104C423.029 75.824 426.869 71.696 431.957 68.72C437.141 65.744 443.237 64.256 450.245 64.256ZM529.424 140.576C523.376 140.576 517.616 139.664 512.144 137.84C506.672 136.016 502.4 133.712 499.328 130.928L502.64 125.168C505.712 127.76 509.648 129.92 514.448 131.648C519.344 133.376 524.432 134.24 529.712 134.24C537.296 134.24 542.864 132.992 546.416 130.496C550.064 128 551.888 124.544 551.888 120.128C551.888 116.96 550.88 114.464 548.864 112.64C546.944 110.816 544.544 109.472 541.664 108.608C538.784 107.744 534.8 106.832 529.712 105.872C523.76 104.816 518.96 103.664 515.312 102.416C511.664 101.168 508.544 99.152 505.952 96.368C503.36 93.584 502.064 89.744 502.064 84.848C502.064 78.896 504.512 74 509.408 70.16C514.4 66.224 521.456 64.256 530.576 64.256C535.376 64.256 540.128 64.928 544.832 66.272C549.536 67.616 553.376 69.392 556.352 71.6L553.04 77.36C549.968 75.152 546.464 73.472 542.528 72.32C538.592 71.168 534.56 70.592 530.432 70.592C523.424 70.592 518.144 71.888 514.592 74.48C511.04 77.072 509.264 80.48 509.264 84.704C509.264 88.064 510.272 90.704 512.288 92.624C514.304 94.448 516.752 95.84 519.632 96.8C522.608 97.664 526.736 98.624 532.016 99.68C537.872 100.736 542.576 101.888 546.128 103.136C549.776 104.288 552.848 106.208 555.344 108.896C557.84 111.584 559.088 115.28 559.088 119.984C559.088 126.224 556.496 131.216 551.312 134.96C546.128 138.704 538.832 140.576 529.424 140.576ZM579.181 64.832H586.381V140H579.181V64.832ZM582.781 46.544C581.149 46.544 579.757 46.016 578.605 44.96C577.453 43.808 576.877 42.416 576.877 40.784C576.877 39.152 577.453 37.76 578.605 36.608C579.757 35.456 581.149 34.88 582.781 34.88C584.413 34.88 585.805 35.456 586.957 36.608C588.109 37.664 588.685 39.008 588.685 40.64C588.685 42.272 588.109 43.664 586.957 44.816C585.805 45.968 584.413 46.544 582.781 46.544ZM684.408 64.832V131.936C684.408 144.416 681.384 153.632 675.336 159.584C669.288 165.536 660.168 168.512 647.976 168.512C641.064 168.512 634.536 167.456 628.392 165.344C622.248 163.232 617.304 160.304 613.56 156.56L617.448 151.088C621.192 154.544 625.704 157.232 630.984 159.152C636.264 161.072 641.88 162.032 647.832 162.032C657.816 162.032 665.208 159.632 670.008 154.832C674.808 150.128 677.208 142.784 677.208 132.8V120.128C674.136 125.6 669.864 129.824 664.392 132.8C658.92 135.776 652.776 137.264 645.96 137.264C638.952 137.264 632.568 135.728 626.808 132.656C621.144 129.488 616.68 125.12 613.416 119.552C610.152 113.984 608.52 107.696 608.52 100.688C608.52 93.68 610.152 87.392 613.416 81.824C616.68 76.256 621.144 71.936 626.808 68.864C632.568 65.792 638.952 64.256 645.96 64.256C652.872 64.256 659.112 65.792 664.68 68.864C670.248 71.936 674.52 76.256 677.496 81.824V64.832H684.408ZM646.536 130.784C652.392 130.784 657.672 129.536 662.376 127.04C667.08 124.448 670.728 120.896 673.32 116.384C676.008 111.776 677.352 106.544 677.352 100.688C677.352 94.832 676.008 89.648 673.32 85.136C670.728 80.624 667.08 77.12 662.376 74.624C657.672 72.032 652.392 70.736 646.536 70.736C640.68 70.736 635.4 72.032 630.696 74.624C626.088 77.12 622.44 80.624 619.752 85.136C617.16 89.648 615.864 94.832 615.864 100.688C615.864 106.544 617.16 111.776 619.752 116.384C622.44 120.896 626.088 124.448 630.696 127.04C635.4 129.536 640.68 130.784 646.536 130.784ZM751.605 64.256C761.013 64.256 768.453 66.992 773.925 72.464C779.397 77.936 782.133 85.808 782.133 96.08V140H774.933V96.656C774.933 88.208 772.773 81.776 768.453 77.36C764.229 72.944 758.277 70.736 750.597 70.736C741.765 70.736 734.805 73.376 729.717 78.656C724.629 83.936 722.085 91.04 722.085 99.968V140H714.885V33.152H722.085V80.528C724.677 75.344 728.517 71.36 733.605 68.576C738.693 65.696 744.693 64.256 751.605 64.256ZM849.071 135.248C847.247 136.976 844.943 138.32 842.159 139.28C839.471 140.144 836.639 140.576 833.663 140.576C827.135 140.576 822.095 138.8 818.543 135.248C814.991 131.6 813.215 126.56 813.215 120.128V71.024H799.391V64.832H813.215V48.416H820.415V64.832H844.319V71.024H820.415V119.408C820.415 124.304 821.567 128.048 823.871 130.64C826.271 133.136 829.775 134.384 834.383 134.384C839.087 134.384 842.975 132.992 846.047 130.208L849.071 135.248Z" fill="white"/>
<defs>
<filter id="filter0_f_16_3" x="9.53613" y="29.152" width="341.396" height="115.856" filterUnits="userSpaceOnUse" color-interpolation-filters="sRGB">
<feFlood flood-opacity="0" result="BackgroundImageFix"/>
<feBlend mode="normal" in="SourceGraphic" in2="BackgroundImageFix" result="shape"/>
<feGaussianBlur stdDeviation="2" result="effect1_foregroundBlur_16_3"/>
</filter>
<filter id="filter1_f_16_3" x="369.021" y="29.152" width="483.71" height="143.36" filterUnits="userSpaceOnUse" color-interpolation-filters="sRGB">
<feFlood flood-opacity="0" result="BackgroundImageFix"/>
<feBlend mode="normal" in="SourceGraphic" in2="BackgroundImageFix" result="shape"/>
<feGaussianBlur stdDeviation="2" result="effect1_foregroundBlur_16_3"/>
</filter>
<linearGradient id="paint0_linear_16_3" x1="398.326" y1="20.8814" x2="840.284" y2="230.264" gradientUnits="userSpaceOnUse">
<stop stop-color="#1859FF"/>
<stop offset="1" stop-color="#C41DFF"/>
</linearGradient>
</defs>
</svg>
