<?xml version="1.0" encoding="UTF-8" standalone="no"?>
<!-- Generator: Adobe Illustrator 26.0.2, SVG Export Plug-In . SVG Version: 6.00 Build 0)  -->

<svg
   version="1.1"
   id="Lag_1"
   x="0px"
   y="0px"
   viewBox="0 0 1450.1229 1341.2224"
   xml:space="preserve"
   sodipodi:docname="Mascot.svg"
   inkscape:version="1.1.1 (c3084ef, 2021-09-22)"
   xmlns:inkscape="http://www.inkscape.org/namespaces/inkscape"
   xmlns:sodipodi="http://sodipodi.sourceforge.net/DTD/sodipodi-0.dtd"
   xmlns="http://www.w3.org/2000/svg"
   xmlns:svg="http://www.w3.org/2000/svg"><defs
   id="defs15" /><sodipodi:namedview
   id="namedview13"
   pagecolor="#ffffff"
   bordercolor="#999999"
   borderopacity="1"
   inkscape:pageshadow="0"
   inkscape:pageopacity="0"
   inkscape:pagecheckerboard="0"
   showgrid="false"
   inkscape:zoom="0.23966667"
   inkscape:cx="-112.65647"
   inkscape:cy="563.28234"
   inkscape:window-width="1861"
   inkscape:window-height="1186"
   inkscape:window-x="0"
   inkscape:window-y="25"
   inkscape:window-maximized="0"
   inkscape:current-layer="g10" />
<g
   id="g10"
   transform="translate(-792.37768,-986.9001)">
	<path class='ellipse'
   d="m 1517.8518,986.9001 c 30.4998,0.9069 61.0998,1.21383 91.5994,2.82074 31.7996,1.7072 63.499,4.41437 95.1983,7.32155 48.599,4.51101 96.8974,11.92191 144.6952,21.53281 68.5968,13.8155 135.7927,32.1307 200.3866,59.1453 34.9967,14.608 68.6928,31.6156 99.9879,53.2227 20.6968,14.3047 39.8932,30.309 56.2888,49.5127 10.1973,12.0023 18.9944,24.9043 25.4911,39.3058 14.6926,32.7033 14.6852,65.4033 -0.1222,98 -8.8044,19.498 -21.7082,36.295 -36.7116,51.3916 -20.4047,20.5954 -43.7085,37.3902 -68.5118,52.1845 -39.3053,23.3911 -81.1094,41.2817 -124.2128,56.3719 -52.4041,18.2882 -106.1072,31.776 -160.5096,42.4637 -31.1014,6.0929 -62.3025,11.1859 -93.8034,15.0787 -26.1007,3.1941 -52.4013,5.7882 -78.6019,8.1822 -56.3011,4.9873 -112.7015,6.8745 -169.1014,6.1618 -28.2999,-0.4065 -56.5997,-1.1129 -84.7994,-2.7192 -29.9996,-1.7068 -59.9989,-4.5136 -89.8983,-7.3204 -35.5992,-3.3081 -70.8981,-8.5161 -106.0967,-14.724 -75.397,-13.3171 -149.3928,-31.8339 -220.78638,-60.05 -37.9966,-15.0086 -74.59259,-32.7169 -108.58745,-55.4246 -22.59658,-15.1051 -43.39275,-32.0098 -61.08804,-52.8138 -10.4972,-12.4024 -19.59418,-25.7045 -25.99079,-40.7059 -14.19259,-32.7032 -13.68521,-65.3031 1.3221,-97.5997 8.90435,-19.198 21.60806,-35.5951 36.41143,-50.4918 20.00458,-20.1955 42.90834,-36.7903 67.31164,-51.3847 37.30507,-22.3916 76.90899,-39.6826 117.71229,-54.3734 46.3038,-16.5895 93.7067,-29.3788 141.709,-39.6679 34.1017,-7.2923 68.5031,-13.4845 103.1041,-18.0767 26.4008,-3.494 52.9015,-6.48799 79.5021,-9.08197 55.9012,-5.48734 112.0017,-7.67464 168.1018,-8.26193 z M 1517.5386,1487 c 53.1001,-0.4879 106.1006,-2.5759 158.9017,-7.664 26.7006,-2.5939 53.4013,-5.5879 79.9021,-9.0819 34.401,-4.5922 68.6024,-10.7845 102.6041,-18.1768 53.1026,-11.5879 105.306,-26.2761 155.8106,-46.5647 32.5029,-12.9926 63.9063,-28.0855 93.2107,-47.2789 16.7025,-10.9962 32.4052,-23.0926 45.9085,-37.7896 8.002,-8.6982 15.1041,-18.0966 20.0066,-28.9955 6.9034,-14.9984 7.2068,-30.0983 0.01,-44.9 -3.3985,-6.9007 -7.597,-13.6017 -12.0956,-19.8027 -7.7975,-10.8018 -17.5955,-19.804 -27.7935,-28.3063 -23.9956,-19.7054 -50.6921,-35.1115 -78.589,-48.6178 -48.1948,-23.2109 -98.691,-40.0223 -150.3879,-53.434 -34.998,-9.108 -70.3963,-16.716 -106.0949,-22.5241 -20.3993,-3.3046 -40.7985,-6.6092 -61.298,-9.2138 -19.1994,-2.5044 -38.4989,-4.5088 -57.7985,-6.3131 -19.4996,-1.8044 -38.9993,-3.4089 -58.499,-4.5133 -21.2997,-1.2048 -42.5996,-1.7096 -63.9995,-2.4145 -42.6996,-1.4096 -85.3999,-0.4193 -128.0003,1.5711 -31.6004,1.4928 -63.3009,3.6856 -94.7017,7.3785 -24.1006,2.7946 -48.1013,5.5891 -72.1021,9.1837 -33.9011,4.9923 -67.5026,11.3847 -100.9043,19.0771 -48.4025,11.1891 -95.9057,25.0783 -142.0099,43.5679 -35.00316,14.0921 -68.80687,30.4844 -99.91176,52.0774 -17.60277,12.196 -33.90587,25.8923 -47.10974,42.9893 -5.20154,6.7988 -9.70319,14.0978 -12.80502,22.1971 -4.90286,12.5989 -5.00571,25.1989 -0.10856,37.8 3.89769,10.2009 9.89565,19.2022 16.89377,27.5038 9.89733,11.8022 21.39502,22.0049 33.69291,31.3076 25.09574,18.8057 52.39235,33.8119 80.88943,46.7184 52.69457,24.0119 107.69067,41.0243 163.88767,54.3371 54.7971,12.9124 110.195,22.1249 166.0936,28.4376 32.8992,3.7074 65.9985,6.7149 99.0981,8.2224 32.2997,1.5073 64.7996,2.1147 97.2993,3.222 z"
   id="path2" />
	<path class='curve2'
   d="m 2158.855,1856.2453 c -0.01,28.1 -0.012,55.2 -0.019,82.5 -3.1004,2.0992 -6.1009,4.2986 -9.2014,6.3979 -33.205,22.0925 -68.909,39.4844 -105.9123,54.276 -49.1045,19.6889 -99.8078,34.4774 -151.3105,46.4657 -35.0019,8.0921 -70.2034,14.8841 -105.7046,19.9761 -26.9008,3.8939 -53.8016,7.1878 -80.8022,10.0817 -65.8016,7.0851 -131.9023,9.7701 -198.1021,9.1551 -29.3999,-0.3066 -58.8998,-1.1133 -88.1994,-2.8199 -29.9996,-1.7068 -59.999,-4.4136 -89.8983,-7.3204 -56.9988,-5.6129 -113.3967,-14.8257 -169.2938,-27.3383 -58.6971,-13.1133 -116.2932,-30.0263 -171.88794,-53.4389 -34.19674,-14.4078 -67.19296,-31.1152 -97.7882,-52.1222 -1.19982,-0.8002 -2.39964,-1.6005 -3.59944,-2.5008 -0.39993,-0.3001 -0.69984,-0.7001 -0.99977,-1.0002 0.006,-27.1 0.0123,-54.2 0.0185,-81.8 1.09982,0.8002 1.79975,1.1004 2.29964,1.6005 19.99538,20.4045 43.3918,36.2098 68.18868,50.0155 37.09531,20.7084 76.29173,36.5172 116.58873,49.8264 48.2964,15.9109 97.4937,27.822 147.3916,37.0333 33.3986,6.2076 66.8975,11.2152 100.5966,15.1228 31.4992,3.7071 62.9986,6.3143 94.6981,8.2214 52.2993,3.2119 104.6992,3.7237 157.0995,2.4356 32.0002,-0.7927 64.0006,-2.5855 95.9012,-5.2783 30.5006,-2.4931 60.8013,-5.7862 91.1023,-10.0793 74.7024,-10.5831 148.3059,-25.9665 219.8114,-50.2503 38.903,-13.1912 76.8065,-28.8826 112.5112,-49.4745 23.203,-13.3948 45.1064,-28.3898 63.9108,-47.7855 0.6001,-0.3999 1.3002,-0.7997 2.6004,-1.8994 z"
   id="path4" />
	<path class='curve1'
   d="m 886.19384,1684.6571 c 0.006,-27.5 0.0123,-54.5 0.0185,-81.9 0.89991,0.4002 1.49986,0.6003 1.89977,1.0004 24.39437,24.9056 53.59027,43.0122 84.28667,58.9191 37.19572,19.1084 76.09242,33.8172 115.98962,46.2263 45.2968,14.1102 91.2943,24.8206 137.8924,33.2312 34.1986,6.2077 68.5975,11.3155 103.0966,15.0233 23.4995,2.5054 46.999,4.4107 70.4986,6.216 53.8991,4.1122 107.8989,4.9244 161.8992,3.7367 27.1001,-0.5939 54.3004,-1.9877 81.4008,-3.6816 20.8003,-1.1953 41.6007,-2.8906 62.3012,-5.2859 28.1007,-3.1936 56.1016,-7.0873 84.1026,-11.181 38.7013,-5.7912 77.0031,-13.6825 114.9052,-23.3739 52.4031,-13.3882 103.6069,-30.0766 152.5121,-53.2655 21.8023,-10.2951 42.905,-21.8903 62.7081,-35.6858 12.802,-8.8971 24.9042,-18.5944 35.8067,-29.6919 0.8002,-0.7998 1.6004,-1.4996 2.5005,-2.2994 1.2993,3.3003 1.7842,69.8004 0.6815,82.0001 -1.5003,1.0997 -3.2005,2.2993 -4.9008,3.4989 -32.005,21.8928 -66.5089,39.1849 -102.3122,53.9768 -48.8046,20.189 -99.1081,35.3776 -150.4108,47.566 -37.7021,8.9914 -75.8037,16.3828 -114.205,21.9741 -23.8008,3.4946 -47.7015,6.5892 -71.6021,9.0838 -29.6006,2.9933 -59.2012,5.5866 -88.9016,7.3799 -42.9006,2.5903 -86.0009,3.6805 -129.0006,2.6708 -25.1999,-0.6057 -50.3997,-1.3114 -75.5995,-2.5171 -20.4997,-1.0047 -40.9994,-2.7093 -61.399,-4.4139 -17.1996,-1.5039 -34.3992,-3.2078 -51.5988,-5.3117 -19.1994,-2.3044 -38.4988,-5.0087 -57.5982,-7.9131 -30.2989,-4.6068 -60.4976,-10.3137 -90.4961,-17.1205 -65.0967,-14.6147 -128.6924,-33.6291 -189.68621,-61.1429 -27.99714,-12.6063 -55.09386,-27.1125 -80.48989,-44.6182 -1.3998,-0.9003 -2.79955,-2.0007 -4.2993,-3.101 z"
   id="path6" />
	<path class='curve3'
   d="m 2158.8,2099.1452 c -0.01,28 -0.013,55.1 -0.019,82.5 -1.5002,1.0997 -3.0005,2.1994 -4.6007,3.299 -32.5051,22.2926 -67.609,39.7847 -104.0124,54.7765 -50.5047,20.7885 -102.6082,36.1767 -155.711,48.5647 -34.5018,7.9922 -69.2033,14.6843 -104.2045,19.9764 -20.4007,3.0954 -41.0013,5.7907 -61.5019,8.0861 -21.8005,2.495 -43.701,4.6901 -65.6014,6.3851 -19.3004,1.4957 -38.7005,2.2913 -58.1008,3.3869 -35.5004,1.9919 -71.1005,2.3839 -106.7004,1.6758 -31.3998,-0.7071 -62.6995,-2.0142 -93.9991,-3.6213 -21.5998,-1.1049 -43.1994,-2.9098 -64.7989,-5.1146 -85.498,-8.7194 -169.8947,-23.2385 -252.5893,-47.3572 -47.8968,-13.9109 -94.59298,-30.9215 -139.1879,-53.3315 -19.79776,-9.9045 -38.99527,-20.9089 -57.29242,-33.513 -1.49977,-1.0004 -2.89952,-2.1007 -4.3993,-3.101 0.006,-27.2 0.0123,-54.3 0.0186,-82 0.89989,0.5002 1.49984,0.7003 1.89975,1.1004 23.49457,24.0053 51.39058,41.6117 80.88707,57.1183 37.5955,19.7085 77.0921,34.7175 117.5892,47.4267 46.5967,14.6105 94.0942,25.6213 142.1923,34.2322 31.9987,5.7072 64.0976,10.6145 96.3968,14.1218 27.4993,2.9062 54.9988,5.2124 82.5984,7.2187 45.7992,3.3103 91.799,4.3208 137.6991,3.6312 35.1002,-0.4921 70.2004,-1.5841 105.2011,-4.4762 25.8005,-2.1942 51.5009,-4.2884 77.2016,-7.2825 40.101,-4.591 80.0025,-10.9819 119.6043,-19.073 47.2022,-9.6893 93.805,-21.7787 139.3086,-37.6684 36.8029,-12.8917 72.7063,-27.9836 106.5107,-47.5759 23.003,-13.2948 44.8065,-28.3899 63.4108,-47.5857 0.4001,-0.4999 0.9002,-0.7997 2.2004,-1.7995 z"
   id="path8" />
</g>
</svg>
