<svg xmlns="http://www.w3.org/2000/svg" viewBox="0 0 260 28" style="enable-background:new 0 0 260 28" xml:space="preserve"><path class="st0" d="M0 3.298h3.242l9.985 16.957V3.298h2.38v20.514H12.74L2.382 6.225v17.587H0V3.298zm18.623 13.14v-.229c0-4.504 3.127-7.66 7.373-7.66 4.247 0 7.374 3.127 7.374 7.631v.23c0 4.533-3.127 7.66-7.402 7.66s-7.345-3.242-7.345-7.632zm12.28 0v-.2c0-3.472-1.923-5.71-4.907-5.71-3.012 0-4.906 2.238-4.906 5.681v.23c0 3.414 1.865 5.652 4.906 5.652 3.013 0 4.906-2.267 4.906-5.653zm5.31-7.631h2.381v2.696c.947-1.692 2.238-2.868 4.935-2.954v2.238c-3.013.143-4.935 1.09-4.935 4.79v8.235h-2.381V8.807zm8.379 7.804v-.23c0-4.59 2.869-7.832 7-7.832 2.496 0 4.045 1.204 4.906 2.668V1.634h2.381v22.178H56.5V21.23c-.862 1.463-2.956 2.84-5.137 2.84-3.93 0-6.77-2.783-6.77-7.46zm11.992-.201v-.23c0-3.844-1.836-5.651-4.762-5.651-2.984 0-4.763 2.094-4.763 5.737v.23c0 3.787 2.037 5.595 4.562 5.595 2.783 0 4.963-1.836 4.963-5.681zM62.47 4.102c0-.862.717-1.578 1.577-1.578.861 0 1.578.716 1.578 1.578 0 .86-.717 1.577-1.578 1.577-.86 0-1.577-.717-1.577-1.577zm.43 4.705h2.381v15.005h-2.381V8.807zm5.28 7.66v-.23c0-4.59 3.27-7.688 7.287-7.688 3.127 0 6.053 1.434 6.512 5.25h-2.352c-.373-2.381-2.095-3.27-4.16-3.27-2.726 0-4.82 2.18-4.82 5.709v.23c0 3.671 2.008 5.623 4.906 5.623 2.123 0 4.045-1.234 4.303-3.673h2.21c-.316 3.242-2.927 5.652-6.542 5.652-4.189 0-7.345-2.955-7.345-7.603zM91.707 3.298h2.496v9.296h10.787V3.298h2.497v20.514h-2.497v-9.124H94.204v9.124h-2.496V3.298zm18.795 13.17v-.23c0-4.533 2.898-7.69 7.03-7.69 3.47 0 6.742 2.095 6.742 7.46v.775H112.97c.115 3.414 1.75 5.308 4.82 5.308 2.324 0 3.673-.86 3.988-2.612h2.381c-.516 3.014-3.012 4.591-6.397 4.591-4.247 0-7.259-2.984-7.259-7.603zm11.333-1.608c-.23-3.098-1.836-4.331-4.304-4.331-2.438 0-4.074 1.663-4.476 4.331h8.78zm4.133 4.792c0-3.472 3.672-4.648 7.517-4.648h2.152v-1.09c0-2.382-.919-3.385-3.214-3.385-2.065 0-3.213.86-3.442 2.696H126.6c.316-3.414 3.041-4.676 5.939-4.676 2.87 0 5.48 1.176 5.48 5.365v9.898h-2.381v-1.894c-1.12 1.406-2.468 2.152-4.677 2.152-2.783 0-4.992-1.348-4.992-4.418zm9.669-1.09v-1.866h-2.066c-3.013 0-5.222.747-5.222 2.956 0 1.55.746 2.525 2.84 2.525 2.525 0 4.448-1.291 4.448-3.616zm6.256-16.928h2.41v22.178h-2.41V1.634zm6.944 18.42v-9.239h-2.152V8.807h2.152V5.392h2.381v3.415h3.5v2.008h-3.5v9.009c0 1.463.66 2.18 1.865 2.18.746 0 1.32-.114 1.836-.315v2.009c-.487.171-1.061.315-2.037.315-2.725 0-4.045-1.607-4.045-3.96zm8.809-18.42h2.382v9.554c.688-1.406 2.352-2.64 4.82-2.64 3.098 0 5.279 1.694 5.279 6.054v9.21h-2.382V14.43c0-2.639-1.119-3.816-3.529-3.816-2.209 0-4.188 1.406-4.188 4.103v9.095h-2.382V1.634zm23.214 1.664h2.496v18.477h9.382v2.037h-11.878V3.298zm13.085 16.354c0-3.472 3.672-4.648 7.517-4.648h2.151v-1.09c0-2.382-.918-3.385-3.213-3.385-2.065 0-3.213.86-3.443 2.696h-2.381c.315-3.414 3.041-4.676 5.939-4.676 2.87 0 5.48 1.176 5.48 5.365v9.898h-2.382v-1.894c-1.119 1.406-2.467 2.152-4.676 2.152-2.783 0-4.992-1.348-4.992-4.418zm9.668-1.09v-1.866h-2.065c-3.013 0-5.222.747-5.222 2.956 0 1.55.746 2.525 2.84 2.525 2.525 0 4.447-1.291 4.447-3.616zm8.58 2.782v2.468h-2.38V1.634h2.38v9.698c.861-1.463 2.899-2.783 5.079-2.783 3.93 0 6.828 2.869 6.828 7.545v.23c0 4.59-2.696 7.746-6.828 7.746-2.439 0-4.218-1.234-5.078-2.726zm9.44-4.906v-.229c0-3.787-2.094-5.68-4.62-5.68-2.782 0-4.905 1.836-4.905 5.68v.23c0 3.844 2.008 5.652 4.934 5.652 2.984 0 4.59-2.009 4.59-5.653zm24.788-13.994c6.372 0 11.556 5.184 11.556 11.556s-5.184 11.556-11.556 11.556S234.867 20.372 234.867 14s5.183-11.556 11.555-11.556m0-2.022c-7.499 0-13.578 6.08-13.578 13.578 0 7.499 6.08 13.578 13.578 13.578 7.5 0 13.578-6.08 13.578-13.578C260 6.501 253.921.422 246.422.422zm6.356 12.567h-5.345V7.644h-2.022v5.345h-5.344v2.022h5.344v5.345h2.022V15.01h5.345V12.99z"/></svg>